<mxfile host="app.diagrams.net" agent="Mozilla/5.0 (Windows NT 10.0; Win64; x64) AppleWebKit/537.36 (KHTML, like Gecko) Chrome/122.0.0.0 Safari/537.36" version="26.1.1">
  <diagram name="Page-1" id="5zQ_Mf3aOAE7H1F6YhIV">
    <mxGraphModel dx="989" dy="592" grid="1" gridSize="10" guides="1" tooltips="1" connect="1" arrows="1" fold="1" page="1" pageScale="1" pageWidth="612" pageHeight="408" backgroundImage="{&quot;src&quot;:&quot;data:image/jpeg;base64,/9j/4AAQSkZJRgABAQEBLAEsAAD/4QCQRXhpZgAASUkqAAgAAAADAA4BAgBGAAAAMgAAABoBBQABAAAAeAAAABsBBQABAAAAgAAAAAAAAABBZXJpYWwgdmlldyBvZiByZXNpZGVudGlhbCBob3VzZSB3aXRoIGJhY2t5YXJkIGluIHN1YnVyYmFuIHJ1cmFsIGFyZWEuLAEAAAEAAAAsAQAAAQAAAP/hBbVodHRwOi8vbnMuYWRvYmUuY29tL3hhcC8xLjAvADw/eHBhY2tldCBiZWdpbj0i77u/IiBpZD0iVzVNME1wQ2VoaUh6cmVTek5UY3prYzlkIj8+Cjx4OnhtcG1ldGEgeG1sbnM6eD0iYWRvYmU6bnM6bWV0YS8iPgoJPHJkZjpSREYgeG1sbnM6cmRmPSJodHRwOi8vd3d3LnczLm9yZy8xOTk5LzAyLzIyLXJkZi1zeW50YXgtbnMjIj4KCQk8cmRmOkRlc2NyaXB0aW9uIHJkZjphYm91dD0iIiB4bWxuczpwaG90b3Nob3A9Imh0dHA6Ly9ucy5hZG9iZS5jb20vcGhvdG9zaG9wLzEuMC8iIHhtbG5zOklwdGM0eG1wQ29yZT0iaHR0cDovL2lwdGMub3JnL3N0ZC9JcHRjNHhtcENvcmUvMS4wL3htbG5zLyIgICB4bWxuczpHZXR0eUltYWdlc0dJRlQ9Imh0dHA6Ly94bXAuZ2V0dHlpbWFnZXMuY29tL2dpZnQvMS4wLyIgeG1sbnM6ZGM9Imh0dHA6Ly9wdXJsLm9yZy9kYy9lbGVtZW50cy8xLjEvIiB4bWxuczpwbHVzPSJodHRwOi8vbnMudXNlcGx1cy5vcmcvbGRmL3htcC8xLjAvIiAgeG1sbnM6aXB0Y0V4dD0iaHR0cDovL2lwdGMub3JnL3N0ZC9JcHRjNHhtcEV4dC8yMDA4LTAyLTI5LyIgeG1sbnM6eG1wUmlnaHRzPSJodHRwOi8vbnMuYWRvYmUuY29tL3hhcC8xLjAvcmlnaHRzLyIgcGhvdG9zaG9wOkNyZWRpdD0iR2V0dHkgSW1hZ2VzIiBHZXR0eUltYWdlc0dJRlQ6QXNzZXRJRD0iMTQ3NTgzNzAzMyIgeG1wUmlnaHRzOldlYlN0YXRlbWVudD0iaHR0cHM6Ly93d3cuaXN0b2NrcGhvdG8uY29tL2xlZ2FsL2xpY2Vuc2UtYWdyZWVtZW50P3V0bV9tZWRpdW09b3JnYW5pYyZhbXA7dXRtX3NvdXJjZT1nb29nbGUmYW1wO3V0bV9jYW1wYWlnbj1pcHRjdXJsIiBwbHVzOkRhdGFNaW5pbmc9Imh0dHA6Ly9ucy51c2VwbHVzLm9yZy9sZGYvdm9jYWIvRE1JLVBST0hJQklURUQtRVhDRVBUU0VBUkNIRU5HSU5FSU5ERVhJTkciID4KPGRjOmNyZWF0b3I+PHJkZjpTZXE+PHJkZjpsaT5CaWxhbm9sPC9yZGY6bGk+PC9yZGY6U2VxPjwvZGM6Y3JlYXRvcj48ZGM6ZGVzY3JpcHRpb24+PHJkZjpBbHQ+PHJkZjpsaSB4bWw6bGFuZz0ieC1kZWZhdWx0Ij5BZXJpYWwgdmlldyBvZiByZXNpZGVudGlhbCBob3VzZSB3aXRoIGJhY2t5YXJkIGluIHN1YnVyYmFuIHJ1cmFsIGFyZWEuPC9yZGY6bGk+PC9yZGY6QWx0PjwvZGM6ZGVzY3JpcHRpb24+CjxwbHVzOkxpY2Vuc29yPjxyZGY6U2VxPjxyZGY6bGkgcmRmOnBhcnNlVHlwZT0nUmVzb3VyY2UnPjxwbHVzOkxpY2Vuc29yVVJMPmh0dHBzOi8vd3d3LmlzdG9ja3Bob3RvLmNvbS9waG90by9saWNlbnNlLWdtMTQ3NTgzNzAzMy0/dXRtX21lZGl1bT1vcmdhbmljJmFtcDt1dG1fc291cmNlPWdvb2dsZSZhbXA7dXRtX2NhbXBhaWduPWlwdGN1cmw8L3BsdXM6TGljZW5zb3JVUkw+PC9yZGY6bGk+PC9yZGY6U2VxPjwvcGx1czpMaWNlbnNvcj4KCQk8L3JkZjpEZXNjcmlwdGlvbj4KCTwvcmRmOlJERj4KPC94OnhtcG1ldGE+Cjw/eHBhY2tldCBlbmQ9InciPz4K/+0AhFBob3Rvc2hvcCAzLjAAOEJJTQQEAAAAAABoHAJQAAdCaWxhbm9sHAJ4AEZBZXJpYWwgdmlldyBvZiByZXNpZGVudGlhbCBob3VzZSB3aXRoIGJhY2t5YXJkIGluIHN1YnVyYmFuIHJ1cmFsIGFyZWEuHAJuAAxHZXR0eSBJbWFnZXP/2wBDAAoHBwgHBgoICAgLCgoLDhgQDg0NDh0VFhEYIx8lJCIfIiEmKzcvJik0KSEiMEExNDk7Pj4+JS5ESUM8SDc9Pjv/2wBDAQoLCw4NDhwQEBw7KCIoOzs7Ozs7Ozs7Ozs7Ozs7Ozs7Ozs7Ozs7Ozs7Ozs7Ozs7Ozs7Ozs7Ozs7Ozs7Ozs7Ozv/wgARCAGYAmQDAREAAhEBAxEB/8QAGgAAAgMBAQAAAAAAAAAAAAAAAAECAwQFBv/EABkBAQEBAQEBAAAAAAAAAAAAAAABAgMEBf/aAAwDAQACEAMQAAAB5fPVFz6RrdKkisM2QE83FqzWmpy1nH68OZrnCVkk3Y10uW9+d4LFWmCXNqAl05sSJTrO3OpVVJnqhGdDGq7K6ttIml0uWqNAvyRYUUo00TKLWs1xbkq0ZOKNrMr9ay6t8kCWMx1qLOjItZUcy45fedTc7nPpYla1ykaUryzVo1qCxFm8P0+fkM15oWR1uOqq24uPbRiWK5cG5Y3pzc9m7NkoU1WzTc6MWGrKLsyrVrs2TpBK0vxmnSjegSXRauaxs2SRIatk1n1jRlEaW5WxdNLVC6HmSUSutMqtosomeZ2uPefRtbpSxS1y05txGYwd+eOavt6UsVo3iiIwqlERkRFVnHsLL40y2ysYwCCiCpQgJAAwAYU4KY4KYIASJDOU1DG7c1khCRDAkok4tUKGatIs93V2Z1VVlkM2mauSGcZe2PO3XXt6BXZOCgiShKyuwORZzke8aLnJy6Tl7HC34MiW6qRRNqtIyFWW2DI2zkQihLMhYVOJSIekZKyNej7a5kcDc5qdjjvpc61cRBJW83tM8SBWTHLn3kTuruWFiFnWfFvspwzd+fI3Om1qslLXZKURkKcNcVlFlNZLi7eJ2ZvN2zHZ43ThnznNpuu7csUxPWryjMz7dJuOZjZ23RGVl1vayTOPU24uu6wsvV1LgmLMrU7/AH6ZtTzenMTscHS46v1uF3KRDOZ2mfSKQSCV1BOlNqTtVulqqVV5ubN16zn5q+meH3x05ratKXkQGsEkceyJMorN14WWalz+Xvz06HGdPGs+cxNcsdaqmLVsuqMxJp1qqRTNutKDMhV2tZc4mXaspapLtWhFMyyVdnt0wWcXrOdHZ4Ojyuvr33a74bECg4dgOV2I4OvNQz3F3rQXWQzc2dX6zXhRvHE756U1tKRF0sxGWzDZlsulmUVm6cCtms8/y+iiOlwm3klFZKogk5UBGpF0tNk4lVQiZFEWKgsnAqRgeg9fTnScHUyHX43qYtmu+y9py57MrU5RGAxawunHic887pz7NdnG6C2wzrLKIRz988PbGyb3EFkiLDnmawKbLZZGayrXN6zq1Ob5+teb0eDZyOOh3zzOOkkwlVIiklkMARiLtbhJmslbZDkmOoFSWR6L0dKtTzIuk6Wenos2OeleO05oQsxKppowHWT3fLy+H1cbrz6tnoMayKWVrvSBxx3PO642Y3qqktGNeFrN8Iz2XSyqpM1y946XTHI83arF6XBu5WEmzrKOe67mKSVNVM2xZelLnbE7uDLZsau3vGzlueljVKPMu1Xq5pl5kzudunOs4+z6T13Pp1dZ5vPtRj0TlaMZnsyNWSgyO+fPzw5e8X9Mes57yrRZjlhqZymzXGXrz1Y6bErqBElLw94vhKrNEsSqzPcLeN2pzOHarDo8HQ59Cc4E2o2QmZtXN5Lztiy7qmJJO6EjJNbbrKzIkSJZKioIxnofX0x5edstuvSY32+nPmc+1GPROVgjAVmFVNSA5V8mDWOjvPpM6y1kOZVRaczWdmNS68rs9NxVUhRI4W8WyhWlyoqKNc49Mb955fl7VZvR4TdyqGISADlVMnEbGoiGMaxRgIkTEAUzt9ulG3Bs1532WupvHJx1t5+ia19OGbeA0c+t2Okky1lasl518nK6Y2bx6nnulefqc8kIy2aSvpztzvfLUOy2WRjs51gVloFBVrmumN25yvL1rzehwbOclAFIBxGkWSgrAcKglAMYhkgJEQoO516cyzB2lmd9fO+hZzs9NWe8paPR4uJ34yl6nn9O7j6GNIVhXHnz8Trz19Meq57qrnVFKFDPZNbN865rVFaysugGZTn2U6lssCRRrEN42azzvP1qzelwbOSKO0RqkiMkSlRGxjiNBKJkQJDJgIQ6a+j9G+YcTeZzp2c73s4Z0057zljrmEpXNMYDInnZ5sXTObvy9dy6SM9UJQaTKsRb5qb2lZKycrEVoLxtZtIiKNc4bz0d54/m61ZvS4NnIkKFnCK7AsUIoEiUsEKcMkrGiJDBVI6Vd/t0z7efLm+vLv1nBOmnn6JSgDAaMQxHFz5+L150dceyxuyMmlqc4sMS64nvOU1qyFk4YiBYtKc6ymgq3zW8aq5nn6U5vS4NfIqlESyFUakSgIhUoYgBGALMUhTCWUKiu526c6zF0uKvQ8vVXOlVmiNsoAwAaACXjTzcvecnbl7DG9EZqrsylaiXLzN40S3rNAFClJKwKzm6zEj04wro7nI8/TPi9Dg085OWcIVSGAwIgBIBEoKcMZEVEBKHUa9L6t82OTq5JfRY9OvPTOYrbo2JYMAGiVoLyJ5uRvGPtz9TnXQza6y2BccxeePWdZvXNZbDIrFJKwSKqORqXbxszepp5/zMGZr5jKyJUQVIYxgqSIDhUxwCGTEBAkIYq9F6OmTU8/tPh37c7alc0rMFQl0pqGMaJQrl5ry8vWOb2x6JexjULIVWkzGvLKrOjrKoJE4ullKAV1OFKVsiyWG8cnzTnc8zEWQDCpSxscSUI2RJEoiOpQ1ERJUIEcqsJZV2u+8W5xejTx79fPbSspoGZtZxNWxtS0BSxCzlZ83M3nn9ufbr0HPdFkKE0S5a55Ey9uPLsN4trVm9jn063LpIVVoSgysFv3OB5c4ueQYRaqsQiUNRGqIglipENWBECQDgI0yNnpfT05dnF208e/Xz10tylAALOdVUupNkqsAOXPPiuef259DefRcukbAgbiowS5DF6OHMsj052Wac67vLrv59LSoikVsiVVyohrPI88ycpFAlElZGwlkJAQ1STVxGxqxRMBAMQxUiNnpPR0qrzHSaOPfsZ7ampSg6EJYCGOwEBys+euzkd+XQ1PQ89sjZI1ECk5a4+/DlWVdOdhrXs8unS5dZDSBFZCJxWtmpwfPnJyiKNTH2McK0HIDErQVEpAFYhgABDpAAzvdGKXNu6uXfr57aVlNA7CWAWMAOX6fHsjR5/Zx8+cs4nfld0x6bl11xWaLLSJmlrOP25cnpijWLbL66nPp1+HaaOq4crqQ5Yj1OD5s4uckY+jnegAIBgAgAYAAAAAAAMIArt9MZ+e5tauXfsZ7XtTlAIhYwAVzxPd870Pl9VfL08HPnus5HXnPpn1XPcys2JOoGeLa5fTHnuvPHc3bxoNE13fP315qWNhFquI1GXPc8vzzJyiMHZh7kAAAAAAAAAFupfrIrsBQqImJZGsWNKb08u3Zz20q5pER0IDAhvlm7+bX5/U89ONPO9Ti9eWiz1eNyM9m2LSsrW5Ob0x5Przz2X9Od5dNem83otiJGpxnXgbzbKwK4URquwAAEogAAIJQAAlZKwAQK0CPXm7CKOXRcdXb1VN+m4+nVN1kKaMYANBRGFcp59EcfeMm8erzvSUl5aSSCyTldMed686LHvNtlx6by+m2EMa02cyzm1dKAMBDEADEADIgMUCgyIDEIBlI+vE3lxDnurlvVdYtT0PD1bMdFUrlKIxAADAZjcNMvnN4o3n1WdXlRI1jSEsiB57ty5vTOfpytL69H5vRpzZEhLRZmMdnPq6VgMQAAAAxAAKQxAECgCQVFNkQ68XvEpTG6Ma046Ztzuc99PG6WOdwxVEyNEOkMYkeU/R21R5/eMPTHrc63y0jNqQVAM4XTnyOmM3TnZZeeg4d9uNiImtCYa1LzLnDV0rGqBAAGogAKQAAAECoBCKrIUIunJ9MSlXLpRz1pmsNz2OW+pyuDGa8J0qYDslLVZOAEO/fpJ53pnBvHrsb2ECJpJlJMmcrePOdOdfXnKy07XHv0eegYETn1qVnJuctWysAAAAAGqQUhDAIFBAIrSFArIdOct85yw57p47sa5Vz0+DqefSREgp1MRIZESSVejrOTBpyunP1M10c2VVFwgiVWGHWfHduOreatZsOvy69Pl0kMa1phrUNSOLvNJZKAMlrMijOpgAKkctlkiuWMCggIFNkhWIr6c5b52y251h57t575bO/jet56AOqNSRTWvKQxkhGX0dtOXN1nn9efbXv40qgXAOCpFFniO/DdqZd4urbz6d/h1gWE1oMlmgauGcDeYrOEMh0xXc28usgGAhyzrH15X8uks0UEIosYCGlXXmt87Vny3n47ta49zs5Xt+XWTpMXTMdK7GdHjVUpduEixVGXv1tMms8ntz7MvocalVRcTAhE6R4b0efXpk3z0Voxr0nDu4ZYtBz7NQEpWB53eZSyAjrMalnUoAABkpad4nnUs1qiJmskAAkah05z3iUPG8XHeua4uszjTzQpVEaAi7K2Ovw1ZDJRn7d7EzbnH68uvXpcbCosSaySK2GHWfJd+NW8W6zeu/nvt8OzqZKKKxGkY1cMieb3m6VgKnDEAwAJQBQAuayQDERsjY94lvFkGd4+etnLfLiyJVOHZQENIkkDVzvS56nGHcu12tI6nC7c9yetztJUtqSJKRE5Hblyt4xbzZvFpqxv0HDu4nU4prGXjGSlAIV5rWb5SgAGEMAAJQcIz0wI2UXNOojTnVu8PeJSrz9p4mrG83MWrRDqpM2c7+etDeHpm7MmnUzqiTPT11lRZxO3K6z2WdQCrICRVKzH0xwe3LFrMt4tNWN+i8/dFlk5c9ZDSMcNWAzFZydScoIYrK1mEAArgKCKMybzn1mRqzq/OgXTm9Yed5Oe7ec256LjbINWctW5G5xYzs560TcNtWLssWmfOc9te9iTs43bFjPsZoFVhAcEsCjeOD25ZNSHTnYbcdPQeftKppNcxkNYDCWQFVc2yUNQDoRaeZ3mauGAgloKrK7MusKtObpzpqyCHTm94hNV8ul6WcejzdHHVdzddV2PUOE1Y3Vu8fvzVzr53o41zumHGt6KU2pxumM/TPss6kTpkSmW+EZt5812406i6c7ia+h8/fZmyJGdcZrAZKVmeudZOAFZ0ZbhEE8v0zbDUgKzClGsx1L5deNTUGBFK+nOzeCWHHtoS3hvPpzjbhTWyatzOV0zPKxadTbzb+dyanO641YvRnpzJrs5u84euPXZ1pldlhGKpZ04Dxvp88dSG8W6zdL6Xz+jRmyGULSXAMZmOfUwHDXpS2gAJRXndZmEoZop1M6XrqlQDBBUlfTmbxOWfPaJePrvl5ms5djDp8NyZw9s2YtWmmXs40uczWR6TTdZd9KotTPpye/L0svQzqaW1SOVILl3nmdeWDWY6kNYtPSefvrzrPqQNObkNSsDKYLJqgJx05bFAGkTn2Z6YxRx9SZKGqIjASNWlG8Vpq6YszqctPn6b+G6JM25fx3s56GM/WaedllLa6lkpIbjMvXtSTSOnE78vQHVxqyrkyUpZCg05XbhziPXFVlydPn02Y3fLqlhGQ1KzJZgJAJbI6kswUBEczUqGABCXlazWXQ1ijAAEZ94im7pmUqy2eXtpaxcoGOO55trUwdc35tNzGyjU1ZqRLOWzr2yxaFnB9HLs13M3RF9YCstlgM53bjyNRbzVc3Wdnl16/LpKpRRWeXUYbMYwEWr082wBiIVy7IDAQxBAczUpS2UpyiABWe5t1dGuUJqOWrydL9a4G5Xmaeeut57w/VhWRLstGEauyVQqGnaz6AqkenG687emfUctzNWpkrRE4Zmrk9OfNsq7YqYtrs8+vX5dIjIkow1kqQES6XpyuGSCqk5VRGAIKAAQ15us57LZQY4QVgKrndrJNRw7HPVS845ydDjrbxUbQ6NPKUbdPGqJK9qNzXzuldHXeHNcSs4PfnPefUculxuuZgSKzOvOucUcz1cTeLbnpc+vZ49dSwMdmcxIgGumOnKwUJJScmgdCAhgEoAQLz9ZyWXysBwHOjHDBGell6/PfB3nhWej8HTfxYe0lpv57mPQ5WOpi6Y2Sllnq1zZXm2HC7c6OnP2fLroTZYCGULXZzumONvnn3lak2dU16Dz+gxu7eajNYCAI3ygxEjNXMsAGACABhKCHDOfqY7NEoAGDMy5oW7xVnXdWPltnpcJnfw33/Jp1i653ctZ+jm9cdby9Nmt8Ttwo3NeHX7dcssMpLxevPJ15+hxvvZuiyREiRMa5OmOP05YqN4ss2516Hh3tVS03OlahZWblEsI0AMyVzrAYhgIAABiUgGEYdTDrOnOgYvLH5rh9MzeiLF112NI415vWbM1lkaeaFUbkKcdDlrTLzOnO2O+9Gkxy6jzvXni68/R412sa12WEREjgaSueR154dYq3jTV816ry+i3VoSFas2BRZJVEI0gYrMFAxDAQAAAAAECsDHZz9Z0zQkvJccc/uZYEd7TFHL1CCGXZa8zHq2S7uTH0SSNQk789Ggz5uk5O88nty3HpOXTpamhMFayZ59XrPP68ebrNW+dlbM79J5/QLzpNfSdLGs5aQyz1KtEc+zJQAAACGIAAAAACUGZLOdrOqWXG81Ipu560y1Ymvqy1zdy7nbJMm7ozNEhKZ10+Fltm1mvSFdO9p1UPNzanJ6843PpOfTpJu1KC+ssvBNOph7cORqVb522Wy7c76c3h5tGiqUqI8NbNty4KyjAQAACAAoCBBQAAIAXNc8veehw2c1MWy6Zc2sbmqypKciK9TTm65YF3PWjO8W8Q6ZllC3bvoUiEqOJ1503HqMdNFnVssrPLxc3FvPROf348ayFzKpWaMa18uiK+2EMs8+69upUpcgUQ6iADEACABiAAgAaoBpWc3LTy1k1K7abJ2dVdOJTm5c3oc1O5RWzNrKRNacq9S2Tk9no+fWynZHGs9nN6Z5/Tn6Pn0tTr6l5ll5uNZLK7F348WVEqZr5a1895euKN5Zdi7OG8PfD0CMADEAKoAEAyIWOVgIBAIiREQIDQGSJL1BWVcNBaqWcTtuka25t5oI1ktdA4qMO88zeO/z2kv20FZRZEwr0cWrmRKWCTUzKNy5VmAKU5AsunJTItVSTtYpJTVgkgSpJUSC2+KUSNZrEVAEoByJEstaWcyTR0sOmM/HUycsKsC0iSVlkNc27K2UuVNZyt55m8dLN6eatNFEVakTHm38dIyanTWMVYiqa57m1YMosaglkVFqwkdsasWuZlINJlq0SzUtEEUAqSWzRZAmNYI4SaJZWwqDLWZo1YdudHDQpF1qpKxJEZ//xAAuEAACAgEDAgYCAQUBAQEAAAABAgADEQQSIRMxEBQgIjIzI0EwBTRAQkMkFUT/2gAIAQEAAQUCdGaFsJpGyH7rGn7r+DDcFws6mZvm9pnI7zWZ6rZJmZmV++V1muEZXVZeNwi0jaR+MFcuwQczfwcCbQAazEPt27QY43inuo6bjOy0ET2lTXl2QSoDLe6OMTnahbOdh7j/AF5MbEVTtPMYAr2T5Gs5StcuDyIvM46gmTZZsE6e6VrkPuYdowi92aLnFlamtlMqVngXaEjxgYOZuGLMbemCTSgHlyZ5dxBUyy85ts+XgoBmdLsbUZnmaxVXqRnr1GDVoSNVUYzV7qXXLWoZ1VMNtTQ21mB6t5dGsNy7FuQVC2nDXIILKsC+oFr6yzWI1nmKp5inHmK9xvpj3UvOvWFS6tQ11PU8xSZ5qjB1NZrGqq3HWVQauva2prnm62nmEFvm69vm0x5quDVVkhl6hI27wJUVFRsBqz7QcIcR+WXsw2wqFG7bC+AZovrbuDy/ZuyGH4ctGZhP/pEShNwHVn5MNpg7H+n1Gf8Azqp5CqeQqnkaoNBWT5GueQSNo61h9r7hkGkwLQZ0a50a50a50a50a50ap0Kp0Kp0Kp0Kp0Kp0ap0a50ap0a50a50a50a50a50a50q50q506500nTSdNJsSbEmxJsSdNZ0xNWQly9J50knRSCtRDSpnQSdBZ0VnTm1piyZtB6t8NlkZrSW5DcpovrbmLDCZk7/wBR+Zjmk7atqziEANgbRMAQgbjjAAE2iEormw2VPjqqBOkMZ5W0rKLQ1ZcQOuOqsFtZnWrhuSCysg3LOrOsMi4GdVJ5iqdeszrJgXrG1KY8wXbqYnmJ5j3dUmdadedYsq6gmdZs9Z8psFD3hr9f/cTR+6YWbVmxJsWbUhrWW2YbzE6864nXWdZJ1q4/DEYXQrhDM5n7MJ5GY3YD2tw1DkVbmLp7lyITOMDG7icQCWWgSt26gc9Fl3XvUUKEmPUcDvWq7CmfA96BmbRMysZlqYjMBAMypCZZgTI3VorK8yrEJuiAiW2DK7oqkzAUM+6VrD7ULjKiAAQVdSl6kofX/wBxNH8cCV1mybWz02nSadJpZo7Ws8jfPJ3w6S8Ty9wnTsEwY4G6xMLojlSORDGOJ+8ZBXcSeLflRs6AsHUS1tu/jqcmzgWTqzfL9QbKmf8AIhBddnSf7g7M2dstf2TT/DOayCwCYCnBtO4gARcqWbcNq+CPHG6bYmUJG+EYAAhZiMAQSttsZgQvfOI43gCHwLv0emxfX/3E0fxlHyZQ4dGScEYExDMTBnOeYQ0vtG/qHbo3BVoO/wDs4O0gwcoY5l3zoXNIVOovT6ZsxM5nuzk4e/anWZ7dy9E7OooXcFzS/wBy/YOZa3umn+C95x4E58MzM4zmbozriZ434hOZmZEzwDyGmczdN0zxnxRwlNl++7X/ANwKnmmqsWny9sqRq3J4j05OcH0ngZlnuDTQ8R4eJuzGcRjxyVHwDDqaniyrmlK33rWRWy1zKLGxizUbQ2zeoXftzQyHqBHB/wCT/ev2KmHs+2af4CftdKHQ8H0E+gekLxjkvMkj4zsduZjhzg7swKRBULanqWttf9/6qI6FdTNLgBafj4MFcMjVwHPpNjobPaHmk5mMqRhmh4lS1BLtTUNPWdsxufVfKl2XTg5dPrNTkdNs2qAvT/AyNvFbBj9DfchnUfpXfenyBlvFs059mDiJqXUY3FhtMxGXaYs6fsEGIFDwjB4zjC5CBzuFcCAqyGbJWZZmYn7hdq6GFllmv+6oZsGDRL/ub4+h6QxyQfHGZZjNlc0IJtxwwzP2zgF7mwc4B5R8nVjigqKA+HW1zW7EgywHH/52+xPlvYUs/wCVX59vRv8A7hPmtnvtObZp/iOITnwB2ljmfoRmyIIGIGfAHaTz4AzP42ByBiA4gaA5GYT6KyDVfavU1/3KpEobqrL/ALj29LKHVkauA58bstLCMf07A8GJDXcTGSe/c7GUoZqh7KFBoHT3o1YRrIbXj73Xe4qZz1Ff35Xonb1V2Qp+K/8AuE+QxLOLZR8AZjnEPoPhmdxDP1n1/sepat9D0rU+tH5U+vR/F7dp6hstJ4hbE8ysGp3MrHd4PRk7uZqPazLxoj7l7W8S07p+24AcENyasLLhmmhWNIrbclfsK1iKtbtYDm6hrY23eoXdt/CynrLU8YEUX/3CfPgyz7JR8IJn+Hn0/r0Y9ZZkoat2s1RHW3batI5B1B96Ltsb4x/ABpRn0Oi2A03CXruFk0XzVhH94IxNohGY1e2HmV71NqFaqT+D/onYo5DFAG24G0pYiOAjB/8AifuSF2FV/wB69wDvt+2af4Ynb1genHiO3pHqR1TT3ajdZrfuxmjSncup4KNvtb4zbk7RMCY9WoDCFfZUcNR2s+TDlhFHuZS4c19MPiKd6UNijqtvWx9uTl8h/ca0zu90eoO7dRKyx6y2cMV6V/3J8pb9s0/159J8R4/uY9B8e3o/XitYtospWt9WpbUDAGkatFtsRrAoS1s7f4rfcjnleLKT7bYeWZRgd93tJBlVS2aezo5qCCv8e6tQUxHGTg7EBDFWywOxqjcli7dSAm1gOnf9yfIMA9v2TT/X+/QeZt8MQeInMxMTE4mfHPoPjuZNM6WNZqDixGw9IBqat65u3RLuf4n5r2CyIv5aCNp58HP5HB3bTFQZNuK6juioxBRlmcx1UOwXppsnsj7d529KvZlumU6bKHU9O0fkT5Yl/wB00/w/c/c7+GcTPH6Ex48enmDPhxj0fqVuE011+6zU/bzt0/15wbKFeFijBmWLYG/hH12YU/7aX4GcZs7r3srVgxatSxUV8NtLEFSRtMsI3DHSRvybsQmbs1q+1uQbNjyxGrQoHlOhORpa8arToNR0BFUIvgO/hz6P34c+HPiP4D4hBZTYldb604t0ib004wh7whWVqXrisrhbZ39W6V8pqPDSMduJ+2HtHuEPDHIdPu6i1zzSA+arydShAuXCq7BkszstwFsWYeMHZtr4ND2Cmsoh72U721f9xAMjtP1+8CCfucTiHHoxxBjw4/i/RD+XOnK2a77tD8aOx7+NlC2QsyMGZYtiv6eYn1MQpJydFtEU8MfZZylQ9wTMsXa9g3uol8aDwE01xnG2Yh7idic4XcRzv5War7+/hxOfATnPPo59H6nM58eJx6MeGPAWLVRZqme7X/bofjR2PpYBlel6oHBiXzPoT4lcx6ip0ZWCf6/qomfu0EyyvbD7Zf8AFsQeCzSKChHj+wYO/ee6Yw1l4WzVf3GPHd4Z8eJmcTjw4nHhx6ufDHqRVtptRUfX/bofjR2/k4icxsgMxM0TYncEQQLhjzDFYNLhtlo/G8E/azRGECA8YhHI8AcHme7OBNTjrzEtOxeu88w88w867zzDzzDzzDzzLzzLzzLzzLzzDzzLzzLTzLzzLTzLTzLTzTTzTzzLTzLTzTTzLTzLTzLTzLQalm0+5Tqdd9ug7Uw+nv6b3/J0PwxMb7AY/DUMQ1e7H6ijwOIihRqSj1uPxv38B20f27OMT9eAznkTMZuZqvv8L/h/lh9lKk9bXfb/AE+VcEnn+AnAA6uot5si/c/2XYLaYA2qfD9p28N2B01sXVV7S/EU8xYrMjod6Qz9eHMyRP29JtbUj8+2dpfYCv8AgIu89AzoToToToToTomeXM8uZ5Y4CA0r7dTrvs0EpOYfDPrYZHlwCJxAuLL0BhDbtMPzjC+BzuTtnMPE2LFaaxhus5Kg7oneBcJ2JPAAwJqA3TF1u/c83tOoYfcdqwohnRpnSqnRqnRqnRqnQqnQqnQqnQqnl6p5eqeXqnl6p5eqeXqnl6p5euChBOmJ01nTE6YmwTZNsHYnb4WAlUX3637KbenKvBnCjcgG9cb1m9ZuWblzuWblm4GbhNwm73ncwtwsrPvq7eCGGdx+8c6kfntBRtpZgcReSBFya4YvaWn26igWqjzAmBMDwwJgTAmBMCYWYE2rNqzaswJtWbVmBNqzas2rMCbVm0TAmBMCYEHEc5naHmciWPsRCzW6z7Ns0mFq6izek3LNyGbkm5Jmubq5urma5muZrn44EDTuNRVhqlG5CgHeMJ28cmZh3T+pD30TmKYJQfwfvv4cCXfHO2anT9SI+6ZmZmZ/lz6M+tmnYfuZ4ODXwNVq/sE0PY5wpVGsua08zE5mJgw5EEwZz4K/sb3LevIE0ygV4hgEPaHwM/qQ9ml++KcGaRvwZnEYzIxb8bPDU6fdEs3erP8ADz/GxgHD/X+8zOJZX1K0Gy/WvsfzE0WqxPNiO/UcTMziHskOctO0z4YMTsCANWRvXltPkIY3YGBoTMwGcz+or/59Ocalxh/0O+kP4/dO848LcYt8dTpzlH3j+TEx/ExxB4P9f77mWs6VgF3/AKh8ppe8IggmJjEHhmZ3HxXGRgi7Dv2bS46P6gAmPAeOuG7Sr7X1PGoBgmjPh+sYhHNks9Gp05RkYOPRu2TqgwdvUJ1RGbLeliAB3E/T/WfkvEzOqqVGxTqNf3/Wk+Xbw/bYE6wjWLMtFBgEHoQ4tp5F4xGOZoVyIeCJ3mPDPheM0mavm0T96d1WyYg5mJbHbb6dTpzSysrr42RTB29Q8P36CcTuwg8D8G7wGdEWVBQluv7zTHF2Z18O9+4rbib4DkrYpC272Dl4eAnEM4icTT/LUZhxNEYo5MU89/TjgiX/AAEAlNTO/c4BAHCy6W5z6DzL6TprAwYeDAPNiiDtMzMzM+AM6YmOeZzOYZneRBB4P9f7ExCX8vhs68cQHBLs8IzNjbfQrbZWfdjaFhInEHek4N6RuJoSMiN2/eRM+A8LNSoVldj2imATSfcZnwHeyW5z6WAYW1tpbM5nM5nM5nM5nM5nM59Z9xgggmQAWDVcZ8EYJLbhauoPmNKtM6JmMVqTgoxU4WMkWotGrcEFVgbBFsDDCqTLncPzF4svTcriaQ4cQxeTjwPgWlqHe0b5AcDg1OK7FbeJjkDEsjqWb1PWLFZTprP5eJxHbPjkCdUCdRoFLTZtq/c4ntyKBSqEeVUBlsUwLuVattlqrPYozzQpEtpNxsqVQiP06anJ24ByWNJaEReY5wLB7tP9sY8J28f0MEaju8fus7SlOrYiBFHht4fEszu9eqWt0WggdF50mnSedJ5dVdQquGHhnxz4O8xiEgRrfAAmJVBP9P3+7GxVWSLT1TqNGHC1LmKuACY592GJ6K7MShXn++3ZFeJtntaHMUPj9p3u5WzONP8AYudrwDxzFII7TUsNre5rByO4lDbLlsVx4DhW72fL1PYFHLnx7muvZCA0vpbSuDkczmcznwd8DsGtELFvBKsxRiLBG+qCMCQEj3FJp7XWwqfO8pK2yEcWrk7l3MUK7lIdXZ6qze86jSgOxsfp1JZgeaxGGW7DGZeuJUfyV9mOCPFWy3aDtcm+W2Eu3wWAwSmvZWDmCcxvlbjf6bbQo5Y+I5NdezxdA62VnS2cTicTiO4RS+IzljFrLRFCxYIIIfpmPD97UNdVo6muRuo1jsy2NsW01FrX2bmMtYtZVe1Yr1LLY7h2p05sjItM1HvgXMFW4TM7rcTFOG0+CLeFr9wxDFHJzA22DvaD12VgmThRmdpUc0g+HIjfJ8bvRbaFHJPiAWKIEHotrFlQqtqb8k/JMPtqIte3T9F9gMrQQdxBBFgjfSZngQLy6l6hpleWexQiAWMCUqZpXQChqYOKgIKRGqBFVAaL7QeRywFKRa+HIK4wU5Vs7ex0pylvIr48C0zGzgxyStg5Y8+1ok/en508tbctdbEt8rMdTxttCjknxVSxRAg9BOBZaSe3ovoNZ8wbRkKDyf2IIIIJ3R4O8ETub3inrJty7IFbT5ZNjLGgQsVpGbFxBtEzDOJjbMmEZn+yYlwypmksJUgkVjBImeS4E/asMS2doO48NLc2bQ5ZELRUCR/m/wBnhbcAO58VQuUQIvoLbRZYWI49V9BWB9w/cEEEEEb6nEFZY+4QkxeGrCM2VsXnJYKmjs/JvGcqZbcEKatWh1iNOtDY5NW/bbbtiWDHWrEdcwSuWYw4w2jv2rAwJzCATjnbmpF42jF3ZgSVBJ/Y7aMe2cT9t82+yW3QDnxSsuQoUehm2xrC57fwX0YiPuggiwQQQ/S8rMyBGYmIZ5YtKdP0ZfuTUGwtNKcXXPsTqEwktORFXjOAhG6w4OcOYy8lSZhQF72FTLV9+lbFnJVM5zmdNi2wIHqzAigN7bL2xLFIgh7jtofl2m+Z5/2xLboB6K6y5ACj0O+yM/U/jvoiPugggggh+m+VvtI1KieYWddJXcwXrX9XXL+eaesl7qszoKQ2nKwVvtXKFKhsetxLqNsCiVUEw6etou412H3rjfYu6tu9Jw4JNded2JiY9o9yj8Z1HtLLLdoUfI/MNxpCBYTMzdyGdmttnImWmWmTK6t8HHpssCgsX/lv08rfkQQQTumo9P8ATmRlZKkn9RHhoSracoGBTatZAmBH+IYT92ElFVFipHPuq/tyFtUL7yDi4YNXzrGUrX3DmGDwtGZY+Kc744m6NMmVqXbBCPXaW3BJYjtBpGh0zCdB8rp7DBRh/TZbthJb+e/T7pW/Iggh+u+bTMGLUzif02tmNqM01O59Eo3NTe2mNj7IG3q+FbOVa/pq+o99GoW6ONy6gsjJqWrHmgZpvqarYVsjZxqFxEzuotcEQTv4Y3Szsx/EW3B+DjMyJ3mmOL2itkoiqX1A37eGGY9nTWmwtON9vottAHJ/wb6N8R+RBD9K+DvFsIEpsItGGUt1KY7733tN5Ci/m253m84gYiebbZbqBcmJlhEOI1kBGXbFVwMBwanyC4wrbpj0XPsd+EfO515ikYqOHMYqIS2FBQ4KzaqTrVsrLaVRGQWDxtu/xLqBZEchhD9KdrLTs5gE2cKrZ3BWbKvj3eNQy9nE2NK1nl06jUsItRj1NWS4hX3d52t/53iGaZ8MGylbLt7L1trrzP0+OoSc3fJz4CLEuWxK+ruv1u16XtebuDm2JWiJZatEqYWNbjPaW3f411IsCMUbvWPi3LbC0Wnl69x6E2+16kMtodZTTvQpWs6LZqSOmZ0tyLWVs9gsLVtFj4M2KY2SVICZZUXis+6t6jKuLMYr0+V8HoDwLgXEbMDqYeaiWQQHhWlWoNU84+Nyhm1bqBrmSHUsx85va282TSRgJbaSf8e6kWAMazX7x0/fZ+KVv7EtRpZcuFryOQWC5TeruCW6R201uqlFM2bZSntxHqGV3C113wuFP/IuQueqEPv9uyz2wcHvVQzRDmGbiF1LbhVedzWbZqPi82ZGybZXSWnRJhUKfbDsM3DK1ogDqZpHXNlpY7TNpm0zHG0zbNsKzbNk2zbNs2wrNk2zbNs2TZNvGybJtltQsC/hZrcy7a0YwJiP7jpNSK01H4SbR06tYsSylg2rqDjWVyq+u0PqAkOu9n/0Wx55GZX6htuwjdMmvJGVIXadOTtdvnfwf3TZlEYgpYphcGM2DaAQ3y37XuD4ZXY9J50XnSecqrWHbZusnSM6RldPNmI67inUQbrpvvm7UTdqJnUTN8zfM3zN8/8ARP8A0T/0T/0zGpn55+efnn55+efnn5p+aYvmL5tvmL5t1Eau5p0LZ0LZ0LZ0LJ0LJ5eyUNYBboSD/wDPXPkQs8krt5GqeSrWHTUxNHpp5fTgirTwdMEMNpsOVOJ/0tX2L8reDcGKgZfTzsy7s7maWZndn/FY6hm3KK3Cs1ZydrFi7CZGzhoeCuCHURFzEU7tnvbGcwFbEI47kDjAmBj/AF9sxsnMwTGWb5xO03JjqCNjYCM/sOAQ3u3AMPaAZkziZ5mWBB9zFSAq47QOALUZQDwCcYMBm1pgmBTMHODuwZzA2Ja2A3uWr4E8aiybmzpGO/Ue11MRiLbezkbbCttQT3MA0UADp+6q4Q4udBGVFM5DETPOclQyzIycTgQhwmQZk+GMxva2czIWbucsJkxLMwmAArisEomOmCNm0Ms92dgM24AxNom1ZtgIn7ZV2hhjbNpM2z3SuwgFOPdPcZhpgqIcZ4hxMzif/8QAJhEAAgIBBAICAwEBAQAAAAAAAAEQEQISIDAxIUADQRMiUFFhMv/aAAgBAwEBPwGoW+ouLjPsW98a4L3qVsbKlRqLL5KQ3wtiFZbhHyfZj1sdFiyo1Fllwmaiyy0Wiyy/BZaPAmWj7LRaLRZZaE0Wh5GpGo1Gos1GtGosssuUyyyyxuFNSttxkWxOLNTGrKKKKKKKKKmy/wCCikzSjSjSjSaUaUaDQaTSaSmeTS5UPbQzEfKxs1TZZZcWWeIssuLR4LRZaLLLLiyyyyy4crJmo1Flmo1Go1ms1ms1mscLa5zMR8uTouyhdRRUoahDlIcJD2PauPHGz8TPxM/Ez8TPxZH4sj8WR+PI0ZGllOVD3Zi4r2Z9i/8AIhdbkNy5THC2XKG4sfF8Udmg0mkaKf8ApT/08n7H7DLFwZC5vk7PqF1/Acoo+IfDk9Ks/P8A8HC4Mhb735o+oXW2+eiuVC6Gz4ux7L3Zp45UMYuBi5n3K6mm4oSsaqKsyweM/jdXOOOoap1CjxtW5wp+Lse3rbl8aydjH7GXYyhdTjnU45aTJ24Toyy1TrdVKyaG7cLbfA4Sn4ux772MYvXy7lde+pUUfF2OMvk0uj8//D8rZhk23c9S4Xod78u5XX8BwnC6PiqzKPl/9T8Hb22MYuF982XcfQuv4DKldHxVY4eCbtn48TSt7hi4MubPuV1/E+j4l5HyMfDlxd7M35lde+hij4+ov/gr42djFwZC646jP/1K6/gqPi6P+RfIxi4MhcuS8mg0Iqv4WHlGB9zfG4XAyyzUjUi1xsf8L4+jA+9tlcLMeFw5xfG/4Xx9GB98+SFwMcOcON/wvj6MD74L3sXB9DhxZhxv31keI+PowPvi+TN6vBg8m+9j4soc4cb/AICUfGYH3w5OlZ2z4V97HxZRlKdC4n6jdGo1Go1Go1mo1Go1QnHxmB98PyJtUj8WX+HxqlL48oy64r3VFFFFFTRRRRRRRRRpTNCNCNCNCNCNCNCMlWxUMxyowm+K1DHxMY+v5WfexKfifg1I1Yl4l4l4l4n6n6n6n6n6n6n6y1x5n1sXW9r38+9mM4w2XyuFw5i2Y9fxWZ9yhMcJmrnfHn0Ic4dcL9xmcoSH6ThcOXQjLucOJ7m6L4b42ZbEOF6DhcL6jLucPQyFxLjz2JjhRe6+BwuPOcV55OtjVmnh0i4mZyhD9JjFw6oc4d8vXs5bqK31wsYuFw5x8c3XqWXOUIyxS6E9tR4hFWNf4afFiRUVsYuHKHOKsr37mpyjEYkLdUJFUdF8DFw5Q5x7Lv1OuG5rYzKEWIWy72Jl+DUyxFlmrY+LJRlsXq9cNbmZSvKOhMZc3svyN2JQ4rY+RlSuvaXEzKb8R420VFFCXExcDnqcevbviy2rZjsSGXwsYuF7cX9e21wsY01FRi9mJcpmovbexjE+FiPE4e41wMY34oo6Kox2IfPlL3vsrZh7rW9w0aSoxR5HCGUUVFFDxqEitrhD39MzaofQ4w95oXGocY9SnNiHwZS9+UMcJQqqaKKK9drheULYnQ5s1FicZeCy9uUJ3wZR1OPf8BrgeMp7r26jLK9+UYcDhzj3sqbF7LWxey4W+hoexCdwxXtv2WvUvhaFwMcOExZmtmo1mpms1MWYnftNQitlriUNRWxS+FIcaGaGaGL42fjHhSNLNLNJp/0aEq9xbaXEmai+Bj4bH5KjzOofmUuapr0fM1CmjxFIo8Hg8b2PiSULioqPB45aKiitlzc2WLZSOvRcLjvhWytrm5U+OC+Gip64/wD/xAApEQACAQMEAwEAAgIDAQAAAAAAARECEBIgITAxAxNBQCIyBFFCUGFx/9oACAECAQE/AU0RvI9KGTaCCLU9D0MbkkpdpJEd2ZOmRMqY3Nk9OSJs9DvOtnXLMbMROv6TubWm1Hwq7uz+ZiYMxMGYMxqEmNMhmLIZDIZDIY6WY1EN9mLMWYsSZDIZizGoppqRDGmYswZgzBmDMGYMVDMWY7GDMGYMweh6fmmLPQ7OypUGFsUYoTgnigj/AKNyjIyMjIyMiSTY2P4kIhEUiF2Oy1ePoqFx73SMb11NM9jPYzNmbM2ZszZmzNmbM2Zs9jM2Zs9jM2SzJmVRkzNmbFUyWZVGTJY2qVLKKst717GRkSZGRIlKMTEgghkPWxWZ4ipC5aVJjD2JH3apSzGysyLMS1Mgm0DtBF4tJV480hJLZX8llTJgYmJiUuESiUSidCurO7R4ux8UaKOj6VKRre1fZ8tNptNpvNkTeRuyJsmZaPK6koR46Me7+Tu1PV8iSbSSjY2NhIgjQ7s8S3HwRqo6Ptn3byd/tdSpW5TVlvaGV0NswYlC4kpPUIQ9bPHtwRroPpG5V3byd3Xi254GhIgi0EEEWq8arg62u+xIrFxUw1IhDstMCXDOj/dl0K1XdvJ2Rb2NLTF4vF1bYqFdWm/kqdK2PHl3Vb5esXEqmhCZ80RyfT5qp6F2TvBV3bydk3T0N3ngXF8FUn1ab1i40JD/AB/dFPQrVd28nf7aqM0hUqnZEXkq6FZUSeofjSUlSUakJj6/BMa6ehWq7t5O/wBvkqaSg8WUTUIas+yoVvH1fy6kxD64V1zU9Wjcq7t5O/25qlblNaq6Ji9XZV0K2TRmyXrpJEPgXNR0K1XdvJ3+2rxqtIVKp2Wj6Vi5EIfBTxdaKOhEqYKu7eTv9tdVSp2KM/8Aleru0D5OhD4KeSbUdXr7t5O/25KmmWU101dWlTBX3zrcpKuCnmp6M/8ARmyvyOT2Dqn9roySFTj0Ir2Yz5zUiKuBEEGLMWQ+L6LZyeT+376soWJTKW4jydjPnMhFXCrK9dP3j8n9v3upUrcVVNXQjydjPnPSx8C3FZXr4fonvB5P7fvdCrSkhLoR5O7fOekfAuxaIPJx+T+16FLPWj1o9aPWj1o9aPUj1I9aPUj1I9SPUj1I9SPUj1I9SPUj1I9SPUj1I9SPUj1o9SPJTVj/ABKc4/kI8ndvnFRRsVQtFPFTZX8nXH5P7X8ff7JhGaexSeS3zhSlnSK3opJ4abU3akajh3mTyf2v46XM/hppk9ZgYHrMD1nrPWeswMZQ6UtxHkt84aITPYipy7q08NNqdD1RoaRiiF+JODJmTMmZMyZkzJlLvXMGNSclJVQmO8cqHw09WXeh96k/+go6vU4RnOxTavsg3Nzc3Nzclm5ubm5velj4qOtNXetP99HV2VdFNq7PZDqkkkknRJJI7U2fDQPRX3wJ/tRRepSYwUknkqg9hVVPNTx0djFfyd8Kf7EU3qcGbbiBW8vMurKz4ae7U9X8nEnqSkjhx40UXZVuhW8vWnEhka/gykQ+Fd2p6vWtuNOdNI+J8dF2pHRDmRW8v9bYbC8Y6DEaGmYwpIje03dqbPjpvU4XJ3oVUGXDmNzxIpu+iapFZoxSF/6Tpakq1piHw4uyvX1y9/oRTdjaOh1f6Midz/6bG4qjITRDZHwxIskrpi4qXtZXq3Q1HL3+SCLTuU3prdThlfhy+jXw+7iOhsTHJBUymqBP/Y2pG18vOikfDRZXqcIbnlX4ovN6bMSPLXhuOKtyvZ22O7ST9KmrSRadtKEPhosr1LYiPyLfhSvOhFNnappdk01KUVdWZEXrTGoKUmYoxRVCFuxow0UvipcWp0VOX+XvWrTqXZTduGRktz1U0f1ExIaR2LsbS7EOlMdOwlBVVBMlGxJlop5ETd9/qfEuym8bjWwn5FVuVEsRVUkVVtbCqMh1FNY6ySpicCqZN1ZDHrp7vKd6u7z+iOJaX5KW8SpObSV9mciJKmU3etd2a4UNTorp+i/UnwoWmvwJ1SRBAkeVbEEMVMj8bPXBBCGJEGL0oa4VZTev9ifAuxWkkmTzKvKUTPdoPJ/UpUsxV2yBi3I2Fd3pZ8GLWuiUK9f7U9a7sqjNGSJPL5VSTTUpQreSpJFFYvI/pkOpSdjFUvpTV8GZmT0qzFramkoTkUzevr9yY9T0uhVLc9ap6Fb/ACJVSETIyRdje1l2Nk77jYyL03WtWV24tUqn1+1PUyUSiLZC87yh2Z5PGvJuU0zsRB8IFQYbQyvxukpKEnuOhMw00WajgVu71dXgV6qkv0p6Ef5Hy1NPwkkpUMqope7V0oRCIHQU0pEWg9SFRiyTbTTavWhd2V31dDavH6k9H+R8KfGp0ZJDqFpYiSozcCqMiZIFoptVrkQtDIiyakcaKqkuz/39Kd/IpYh7EkjZMkklVUMlmSKmJkwV1bCEn3ZaHdMYxakKys0OgwR6kjExRgJI8vhyMcVH6k7eQkjIj4QYEbXqFBJU03etmwmzaBaGfLIdloVpFbJGSMkVeWlHuSKPNkzJGSMkVeRLakornsqc/sr3IEiLxI6TFlVA6WKhmDGmjGT1npPVA9hKWQ9KKbrQzExFsSiUSiURL3YvHuUpUkokrqhCRTsSSSSSSSSSSZGRkZGSMiSSSSSSTIkkyRKJRKJRKMkZIyRnSVdSj2GZmzNmbMmZMyZL4EUjdkTqdb1of5YII0QRy0V4mKq3p53akgdlpbEST+mPzpukaVZEcX//xABAEAACAAQDBgMEBwcDBQEAAAAAAQIRITEQEkEDICIyUXFhgZEwM0KhEyNAcpKxwQRDYrLR4fBSc4JTg6LC8dL/2gAIAQEABj8CrEZBUlTdcyF+A4ieEsJnYrjMeZmZSqTIZV6FZ9icikzLtJzG0KtGSnTCpwu4lEjNCz6TQcUvFElXrM4qITdjTuWl4CadEOKEmyehX1FQqWqfSRCZVUFeZxChVtSXiOES6YON6E2eI14kT6HcfQkV1uND+EhWOVP0OFyFtIG3hCoZksaYKdOpY4nJeBP6T/xKRLCw1uVikSEUdScWljmk+xWIabkPizdDiimJTUiSZzKxLMqHOikauNZkhQt01EooiWzcKnqTiiUzmRzqSIXFHRHOpHMqFIqHvEL6yqJTn2JZhu5lzU7HN8hJtz7E5P0NTUpOZ8RnWpKTLOYnxTJ1mZ86c/Gw3qzmoObqT1YofAoIhx4dSU8JMW7SfENFboiyzMsWzUjPBtNqvBEvpNr+BHPtfwozRfStvsT+t+R+9LbX5Ftp8i20+RKW0+Rbbeh+9/CVjjg+9CNSnI5UV2fzKfmcvzOU5TlOU5Tk+ZyHIcguA5DkORHIjkRyI5EciORHIjkh9Dkh9Dkh9Dkh9Dkh9Dkh9Dkh9Dkh9Dlh9Dkh9DlXoZcqlLCxYpP1NTU1Ls5oj3sR76In9KznTNCcoBPoTJz33WmD7Cl/p/8AYbUENOrZKWz/ABDps/xFtn+Its/xFIdn+IfDs/xi4Nn+Mnl2dv8AWckH4xQRQycVqkLf/URF3LYWKE4oEzkSORM5F6nu/me7+ZP6JepyL1KbNHu0e7h+Z7qD5nuoT3S+Y/qkke6U/MrsoTh2cJlh2UPoVhRyQt9jlh9DlS8jlh9C0PoTSX4SXD+Elw+hJKH0Qo4kq+AoIITyweasjlRylixYsNQqxynL8zl+ZZmpd+hSIoye74YZcGKUrKv/ACJNz+tl+Yo+BL7hz7P8H9jn2X4P7HPs/wAAuPZ/g/sTz7L8P9hcWy9B12XoRwKFZkpzR+zcTrf1IZyf1nQih/iE4aocMramZYNQnYmSTJY07HbCglpuuc5LoT9KFUSSJJFYT8xqH5GZqpmiJQ+pMoQaUJzqz/jhFg5EnRmhpg2pepZepy/M92z3cXockXoWYnIzQuhbcrhMlYsMWZN8P/sKUEPvCF/wMn9JF2kP66P8AvrYvwD+tdv9B73/AMD3i6VgJqkopG1tydD9m4f8mK6+sI+5DC3NE0RQ+OhQ1uVujpgn0wpj44NFZYTnPCywlZFMas6F57sOXoTjUkrH/HB98GSiRXjhKS3P7mpd48tR03ZE0VGSGQ1Spq/4hPP+80RSFvgd2RZYVDRVKR7Z9mX/AGiw+PbjcO22jaU5Nmwiik3F/Ui4LR6G1vyH7Nx26rxKRQ+86kfcWEtMH39pTCb36FS29C30MsKP+JykUWWiZykoqY5oHli+Rli4XvTORsrCu+6p4TZY6mWUjyIfur+YXC/eCnFCuB6jnHOisvEicKiutfAbWdyvxCcEUTU5VZt7zkfs8ovVeJHxLnNp9zr4H7POF/4z/uIj+9hmmRd8H3xUWa/t6YWmdDinueRKR1INKHCu7F90h7EcM/iJuiFLoPGUSmifPB8y892SieExCx4jM69zg1sfoUEKUTVF/ML/AHRfci/IcoXyr8yKeVVV2R8av+jIZRw8xt34dT9nnC6X9TaffRtP9v8AQ/ZpP/JnM6bQj+8LCLvg+5TDLJYSwphXCZbCh4YTlhwoy+I5Y1RwUK3xgy9BOOcvzF902ZDE0ppqvngu29mg4YvkzLEssW5Zs/QnLGhXBKxUda6E7CIZwTotf4hShh950FxfBFbsVfwfqR/8f0NpTX9GQ/eNv2P2f/NSPidIza29308D9n4IRzT95WptPvMRldB4eZVTn7WmNbChVSU5HMP2ENdBSrMX3SCKG8ivXBdt/LEponWOD5nXD4vIeXQTHjPclofqdmKcaVF/MLiif1nQUoXyO7KQQ8n6kTTlKVvI2l3J/oQVc8xt14Gw4Ya+BHw/GR393+hsOJynqiPiXvP6m0+8xYRYef22CspI8RdiDsPuSkTZTB4SRKeObZ8MX5mWJZYuheWDe5TCZUoiQxSTfCv5hU/eEM4oeV6ldp8Gi8SOFZnb9CX0TaM+Rppzl1Nvex+z8Xy8TacS5yO3uuvgbDhdGbSf/UX6kf3mIuPDz+2wZNYSFx2/Mk+gmqohha5qilg8Iu2FExTvLclGcOWNdXhIuUqNLHqSauWkTV0NPoKvwr+Y/wC7/Ug7RHK+T9WZZuerSIHmit0I1mit0HKLjalNqRsYcrnDf1NrP/WRf7X/AKmwfibSUTptP6kfdiJ5qdCLB9/tsOZ6CUMNBfdIexAsqmtRDcpDxsW3708B4VEXJPG3FM4lpKjHMXCnRX+8UkvrOhDxPliFxcUtR/WQqvQXHDRnPDU54PQgimk0rkac01GRf7XT+E2DcMN+hteD951vcj7iweD7/bYOxToJLoKCdiTaXcpHD6ks8MTa0HL2ksZ4eONKjjdMr6GXZTpeZxRNeX8R8XvCFwwydlNnu4fUX1asP6tCf0S+ZL6FfMh+q/MyxQZfEiTTn9H+hsau70NrxfvCLuLuZdR4Pv8Abdnl1QnFNHkQ9zLEqE4OOH5o4WjjlLr7OhF4FcZ4Ml1PAiWyal8Q4y3T+YzX49BP6OOniNZI79f7ELyx9LkSyxW6nLH6jpFWpZ0ZKtUxqTnJynobJS+Jm2p8ZEIpceD+w29pBPoUhmjyM8KnIrhOF5I+pl2vC/kyj9kmcFJ7qwoxwyIss5O5LqNLov5jKm60tc54vQ53VLQfHFRzsL6yL0JfSxegn9JFYi+sioL6yIa+mioQ54p0NtPVzRKGCKKPUTjfkjX1IpNlymL9rf2uzrKSOG8hdiLifYkkLzwyxKaJ7OccPTVE03/Q4/XfthbBaLFMvhJonL1Jl8resj3z/Ce9il2F9Y/Qf1jquhNRP0G9H4C//I56r/SX/wDActf4BKn4DJHlk/CRlfU8Cf0j7EX2i+/AoOhmjlYXYj8h9yHczQ8EfUy7Wj/M4Wfpu0HoPMp7k0WHgupakx0k1QWKwWylTqX3Jy3FXXB+2sWLewsW3oG3oJZKMXYj8h9yHdyxKaJwNxQdNUTm0SjfnuXkNGV4Vvg0MrhYcKvclItuxOVU771ymC7mTK2x9vtF9+CaaocK0F2I/Ii7i3qb1RrUzK6wtvdiRWkM7b0aLk8J43HqLueI3jNYaGhoaGhoaGhoWRZFkWRZFkWRZFkWRZFkWRZHKiyLIghtS6FxMXYj8iPuQ9/ZS/UhjcUU4tJ4MljXdqZutRLNce64eqwvhI1wnLBU1Jjx8/tkLeqIdplpMXYj7Ij7kPslD1YoV8K3KFSm7Ik7+B+Q0tVuzhoxdqlsKPGZ3EKcbl0K9MZJz+w3LlzmLnMXLly5zIhNnCnQXYi7Ija6i7+xlhUrjlK4y3J1wXYSLY3ElbcsLJE4XMcEcUai+8c+0/Ez3kf4me8j/ETcUTfc19Sv5lixYthbC2GpqampqampqUmczOZnMzmZzM52c7L4dyHKQbOOGrdyHsWn1IsJtyXUrEisS9SeZHMjmRzIui6KMuXQn1KF+ITYvYeQ8070mRRQ21LeuK7Y+J0Ie5NUiWpkj5ljqamprhqamv2C+F8JIljCQR0vIh7YVZcuirRVoui6Lwl4S8JeEvCXhLwkL6Epja18RTZw4InjXGF9UbSHrBuQ9saYLuVM8NI0SdIlcuXLly5cuXLly5cuXLoui6Loui5cvjfC5JD7FMVnkbMh7YRlHI2kUb6eZN+Swnjclu5vEZw4LUl7CB+Il1TXsYe55PD6TZ0jXzOj1Rcui6Loui6L/YLFixJXPIfluQSobKEhpOhyIi+rR7tDb1xlPdtuRLxOJk0pLCu9XGfRmz+8NYxKeu7D3F2eP0uy5lfxNC27YsiyLIsiyLIsiyLIsixYsWLFixapPqjyH5FMYMtiCLOlEQdsIvZyxjUMpl2SzLBdfYxifiR98YluTIe55Pc+l2a7omkcpyljlO5SZYsWLFixZmtDU1lI1NTU1NSZN9BdjyH5YTwhcRs4p0IO2D3JjJZjwL7zequNehbCr9jGvDBPrCsa67q7730uzVNUTUzU1NSE8jU1NTU1NTUfbBfdLly5zFybF2F2PIa8NyEg2dHNzmQYdypJsdCtShVk3KhkhhkZFWZKEm6t4xN6jPApu03WSNg+sGPDKld1dxU03ZMzw8juieY5jmFxWOfQ5jmOY5i6Loui5z/IUnpu+Auwuwux5D8tyUFyGKNtRToQPCaKu/Q4amaVHu0uJWnuvoNDy4VXsWlOaG7TZLpj5bqFvSZT3bKS9nYsWRZFixLRHkLsQ9hdhV0HLw3I52uUvCKKDqcU5CRISg1Ep0XUpWhRzoSVyTRYzHFOKZJGYkmU0w/XcZPei8d2GKookqPchFv5YjJEpwuzOU5TlLFixYsyzNTU1NTU1GkeQuwq6Cl0xfluS5s1CJzm5CistaH1bzK/YUSpM0Ej4+pR+uCctS8kJbOHM1diiighrahx2OiF0RP6QYp4rXC0t6ZC91QmVVS3ISH2DhiOeI536HvH6HO/Q5/kKOc1qTzHMcxzHMcxcuSVyLseRTCgpi7EvApgpaifiSnTQai5ehGp15RqVhTh8yks0ybt0RJ1MsiTt0mZvDQn8PSQ56E9NBmjRWnbBSwTZRFfYL8joXwqyGJuhOCq3ISHffzZN+S3Zvm/IkzND7tk1LdseLIhyqVwUxS6EPYXY8tyokkOCOF8TnMjreEUtKMjeg9Gi3mTs0ZW1mdh/mjhgTKRNFzr3Kl5FLH9Sh4lXMVfQkX3JYVFEhyoiDxX67l713IfMhnvXJvyXTckjxxlESvAzU1NTUmPVlcOgpdCHsQ9iHsQ9j03GJvQyuK6oQRwrQzVkcVJ6kUq+J9JDLxQns5NT1J9OhJqaKcvRk1Aoewv9PUmlMTXmumH9sG/UmrmgsU8WJuxlGRqFTqKemF8IO2FMIewt6cXkum5JHjutRjgo0WXqcq9RxNJSOIaiZceouxD2IexD2F2F2PTdcMJCrCnFYn51OEoZqlXTrhzz7E1+WH9CcyUlcqq+BzMUxniNxJTwUoZCJYVQiaE7n6Cct2EsZIU+6FFFFF6kPZkO5/lTNFf8tySKb0lf8t3Ps7DcVfAaUNjyF2IexD2ELsQ9iXgeWNqHkZoKdBRNScqjrQtoc9CS5fAkVsUFlRbCo1j5EmqihsN4ShhK4UGmytimHZ4OlyWFiHZ6Gasu4nGvJGVKhD2Ysaf/ScV/wAtySJLekn59N/PsyLseQuxD2Iewhdhdj0PIocpaWChilDLxKOaF8X6E3KRFOs8Ja+J0KD0JtNFLsqZYbnFESbqWxlPDJIruZWQ/mtBrB98Jj74RWmnhXBdmLCS/wDpN1e5Qkt3xKeb9jngPGQuxD2IRCIex6E9JE0TmyUipFKrLut0R1dyWnQXieJWpV4TfoTkxuUXkLm8S834E7lyhMkqdhZnTccsJsVJkMopdj8yXUypNjng8IsOUrMVNMJKvgTdXueHUkt7w/P2f0kAk7kPYhEIXY9BdjWRYVMM2zSm0TiTihfyJ9Vgo5yULM7t+RKBPNebKyfYyQrL3Kz7lXfqz6pE+czE8yl0JpPyIZdaj7jqJpyaOK5QueOMiuuhlc3Nirqdygm8XXQRMv5E44ctOplVScnEzlOU5ToiS3f8oeH5+1zwXEncRCIXYl4EPbdyRyoJwO5BF5YRpqzJF6FUKIskfoNTGoScTuZoHTDP5meFufiTkOZYRbQZPc/uLaZSdsUxGWG4lrQ5lIWZkk/U5k2XRKnc0JRNeMnvMrbp7fPBcUMVxCF2JkPYsWJrCOuWhmz8Uycak0JDhlqZ2xVUmi0++Dkp5bozwOXgx1yvVEjIqJooTkOAcrQoXiPh9MFK5V71LqpXh6onDyzoMasJTmSIe4jK06a9TNdmSGFxRCit2FenRk2WS8BtSr03pvyXT7DmhuKGIhF2PTHNMkTFxOtyU8viRwNrlwzFzL4nEplfljTUyw8MmZFDPr4YvqmTUMmOlZnCTbwhhkKWm74CSc5nBCk2PNKeLIe+FWeNqE42q0R4Di82ylRuCFLvqLNKeshVxl/jJu/2Oa5jLGLsemC/LG9SchQKHMxdPAlOW5aZmcN+hMrbucKnSzZysXC32KproUSI5EMSU5riIocP1wuUKYSdOuEybXcVHL8t7h+GQ26dDJAib5cJScMJJIrPsOJEEypJHj9lpzGWIl4DXhjNvlK8uiQ6kOaVhZYpDivCtSam2axeKHKpOJSRSupmy0OktGPMpT6GXPU5n/U6ldm2KVUy0qWNkneKZKVh0qTFhajwekyhcaatfxFl5RYvDhSqaH0mRTnMol5FdSrUrilJyKpT8CXQm9CS/wDn2j+IyxDJ6Es0vIzN5kUiK36ozOqlQ/hHOUomOVIESSlC2PNU4pro5lvM5mdRyh8uo+G5llLvUzEpyJw/CN5PumZpZoHc2kBF1LCxeFebwIklUlFBUVBMqc0Pqc0H4jmh/ETThp4k5+pVykcy/Ec0Pqcy9TMpFZIjc59ij8y5zHMXOY5mczLs5mczLnMzmZzMuzmZdl2XZdnMy7Lsuy7PErKfiJwRrhuSh2sOXo9CUO0hUJTbQ/Mn9JBXpMexj2yyPvQzRGeH5kTjUnKXcnC5TMrUvHoVzeTHJy7lawuqJpcWp4yMrVOqFNuaU0ycmT4qkiGejPPUVObCkOFIWT6GZtIykp1Z0Mo4bk81OkieR+hyRehyRehyP0Eodm4erOGBzFOBz6yOVnKybt4k8tuhSBoahnXwNfQvF6Hxeh8XofF6Hxeh8XofH6HxHx+h8fofH6Fo/QttPQ+M+M+M+M+M+M+M+M/eH7w/efM/efMttPmcUMb7o93F6Hu4vQ93F6HIzkZyn0W2gcez/IUOb6uKzOd+hWJyMzcReIUUOb1OR+pWD5nukU2S9CX0cMuxKSwl1uKGU0KGH4dRNysTKIkPwYzsNCc7mZ1qLoZ4WKKcovEmiRQlIdCcNztUuSmVoNRSloUdDhucpOSmcOlhXTJTb88Gi+E4XNFHhmm0XGhpoWg5O5mnhOZUuPLLi0KOmFcLk6zwZqdi5KU4XoKJVhKkpfLG0yiwui5R4QqRKdfAzMcLanYURwlCpPTDMUdLoorXoLqlIpgzMm0xPBwRLsJ1Llr4NNlyzkV1woyc0y8mOdyTTqSqVqWK4KRU0JzoVepzRFJlyjURNdC2HKqaFBMqovLC0zhmTKQotUpi1czbPzh6F6FCpQui6NSzKIsf/8QAKRABAAICAQMEAgMBAQEBAAAAAQARITFBUWFxEIGR8KGxwdHx4SAwQP/aAAgBAQABPyENoOzxBrZzuJhqUgVy+SbzSeSEy7bhCaOUyTkt6fcQs7o4FDfeNSlphUzkmyOuYXhwJ3h6XxNuEpYJWStsTwAYKiBkVUuDAcGLfQ+6DopWaYxlFuYp0A44uOBdvSK1PB8w17J3UuItYvtAtQ8+ZU3AumXvveFoFdLhK0OfeH/bCAOH4IKczBMgnhCBDJ2Z1DTozO/6EqWN+0pQaMY1cBkNsXMMyjACy4rpNQ5q9yjaNw/zEzC15IGDCxN6ZwFmuxH50PzDbkvdKbM7EwcCVAqmqyxQpuszqE0dpn6Iqs90sNL1zYnDvNfkxqGBiVVS0cygKpt3E6EDgiw70TXTTg7yzXO5h3PELkZyidEPMsxDSMQ3RidOPxKnpMwZT017FQtnN/ubJS9mIUKXqUTQ7eErZJCbJ82TIwY7zydbzC6JNvq7iPiOOyhtM3Ne3jJUcoqM2ZllsDFaxSZJY1Ywn3FM41Zd4lBLeWUszvnVTEIHdl1jwfeLAbN7M3FNavUpGQMXH44K3uGgViK8d4qBmAMOIsUUzzMIINBLFZI+JxkdEAq7zMaydPMCYsMnSXigiviI/voOcORqOu8A+MxqPdsUuZb5TJhMvDMXseItYMO0ItW71F29liO3R61eZkhQUnSCj8Hcf4XhnChuVlozZCNuMLZTbC6AwreSZ3lma4AxM2PQp4ipSCgu+uYMPVqwFsl3VQQ8sQqzFOD2i1BQn5iS4fjQOcH+0yhLtiIVoXTUyRzrEXN2HecEIAslsvcqbrkpaLf6n4FmIUT765ZaiwZ8IEQoex/cK8QJeO/RYRRi4/gSp1n2RUrFxy/mPFLKzDMfFmcdeFNePlD/AHIHr82fWs7P5ZZ592fF1lmbs3lMAUz3ZiWnyzJVNdWdA+WYtMPVjnKdp4hnsk+puf4k/wASf48/x5/l+hP8pP8AOz/Hz/Gz/Kz/ACEp/oz/ACk/zEFaJg6SjWI8QZ6LLf8AufQzhTwpsvyin/U7vzn+zO0veb+XvAtYe8DA2eSdax2igrXq+hwUXJp2jpBDisk+J/hLGHVzP2IFmZWHcAr1NzIJvC0wViYjVxccKE4DZYwKfmUqw/L+5VWLG/8Aca15m9/78wGXQP3mH8o/7jbsONuPeChhv633jSLhP1cMF4+n/cuggKW95TngqNGIck5xKHLvDKC+0QIpidGe8tBBy2zj+8ZTPyGHPk7pmKoHCmGq252gj9pDdXOatiZnltv9wPbvq/3Mykxn6ZXhZ5/tKuQ6i/3PJ+f7RGgB3bmcHzv+oPR6b/uZ8LrPWBlr1gdAfWyVMEIoZ/ElssXYQf8AwxRwdq3DyO4f1EOTw/qNygzusXsOeZX8UdErg2WtVia/GFdIqa1KuY8ZO7MeQe8+liOf2jw5eZwcPMA8DRYdR+ZWXXUFcPvPRgakF3mOACPHeIq/cFZ6SgKl9V1M7iSsbfEYtdHMoLK2McfmbGLsLZyTGhyVCzDqsRj8S7OWQXnAf2i0sdoft07S8rc6hkcjO8Ojg6/67QEA6mrf1OOy1g8S1ODWW8ozUCZEC8q1H2scLEWVC+2EwqVxdylMX2lwhb1fPSJjoG5ku3acYzuWl7r2ZR8e0RVXLOVOw7gcylUDxbHbsvM2BhGVtHFRyjNkqFcaesWHoxJD8lNdfYaQWslbqM/0JZdN5uZnJ2niOqNuVcIjrgd/SVKleccssH5zSBtxqBrsyijhD3KJlmrw/n0GTvKogKWHPM4t02B8/KVR4D3j41XmHhT6/uP+dP4I9JHekT38Udk+GLQKYTpHbhyzUlRBhp7JmAO4lDiLWJg0xzMg4XUuypBXkjCrUwNc4Et6K55czKII+CtEuBFboWvzPfHR/c4T3w/uYFbS2Jk/1zNQ30o30iYytYAXe6iUot8joS+TnVXiNgFW83K+ByigauWyN78Syx1NOI0OVxZN24EMzP8ARMHw77gVD7xurJwD8xzDMVihlUYOqynDwywA0naNWEX9QMwmB5Qj0N0iqnXjUAr6EqYww0E5Xlg+v2g4x8TI5f1CCCsByF2IXpS3aDkUTgcQN1USazNyghyMkLWZAee81eH8wlYuGfiH8zJl0eSG3s3YZ95iZTtz9/mKdK7c/f5iHF47O/v8wWVdeH79qeSfX32mTCD79+ZqcXtNsvt98RDhv2mhIOkuo8oQBzWYqbioU+ZnY8EqEX4gCjPFwLWL6TRLXSvTVCZfq1S+4h0XttclsrOC4zjMr24QF2Z1cGMgbLqxcWgkr7T93PEMBPmUe2lkbDQuzncuuq+7FEOxhkckVgiw8OvWOtG8N8s6nhN1EWXB16EuhXngijk1A6oOaHUBZZrUMtzfEVaSh4g8EUNMal+fE5jPSFVl3EU6aYVM6B+JTlxKcjcyVhLXRh1SZcVDQDBX1l95eLUiY7MpXtlquiavCLBFEDyjCklAFmn9xhIQYDWvjlL1j0X+PvEv29tff4n48n3t8MPb79PzMdn79+Z8efv3UTgEt/IuG3EjBK6ZlXbWSZS9pVJx+iCCLbNuGVxUdVNoWmzu4FQ5/ZiWwZWlYtnuBG2Qw/wuhagaM9iAUVbAYr2gOyu4fDLtfZyVZMlaNckUoZTzrc4Px06IS4d3jUBT+25TLnKaMvaOqv2mPlemEA7XEaTExTpCsZm4FDmFzn0B7y74qVcCcyi6lVqe5N+3Etsiue0WLpUzUrwLmTTDpCs1lq+ZWxvMM2feKDjEalwQWAyZtX5SpXClhK9kryT8J/MygdENi7VSlV/OwHFY/wAy5QX/AL6cz+k4h9L63D++fmCbKO33z8y+qvt97/Mvq+cfe/4l9Wvb79JsrB9+/DKJBMu1p3Fa8llRRpJX8yI4ZqbHFyncSK6dF6CMQDRAcTTWdnN2w5O0GahseUypt/6mj9KTBiquuYqsDwvQj5arwXiGRou93RqYAEw07Qq5bDUBPpbn4n9YxkGWAHwQXxuD5X7mYSnDe4H0ZAsZgyuBC6gsUk16ywOVCoWqmWNmz4mW6QFaltpnRLvQSgyXEKwDLLcr+0ODMAi5dIUlBZbiWDQuhcyttVdrmLmDWrljGKijLbXBCo0V1mY+ZzcXj5KlBgSjNSu3nUVIDOY/CftiG4oYVWqaej8d/MWVF+vEIoSZk1wHHt+PieLPv+fE8X9+n5l+fj79Y338CUK8vEsmAatqU6rCYb6gJzGtw4ZJqd4HEcFpVYlR2B8ylS40ZSgyKqZDvM9Hm4WmFPI5dZRNLs00ImWWjl7oL7r/AEi9WqbICc/1N/71E4Vg4yVZ1uJVSEOR0y5HMoVZWZeqgYeU0PpcOjrM4FBuW3v6HOK2KHCUnHtOkUKioaA4ljRi1mmf86ZmBKQODUyhqNZhGu1hdyqwZbIl5FmOyvGMM+7mXFlP1Nl9OsSmYYrMX/jHBCcwxRQd8SuJ1FQX9G2HIobzWSgYO3p+M/mb6L9OZx6cehnX/kuH3PzAFlh5Hf3+Z8/fr8ksNsCCFvVKURdYdRbWWDZ5mCHzE17JQXEN6cRvZUcKyjXV1bVuI2LDR4VUrtAbuwcswBffwpDBq4Or5dYJzA8AhnCXU7oYTlm4FKJlkO0zr8BzLL9RdO9zH0HvnNXiPJAas43eI+y6znauO1e8NDvOY29ejMkIVx/EKfRHSXnEbEeSU6mBGNKZdSsDeJa4Mkbu2VUD5ldUKu9Rq5UbYahzcSiFkl0FUbZY2Nf2+i9BHNTLvgD+Yw8L7+lvC6zHp/iVBVfaIasVc5hiBdDbOIKXXWP6+8S0141ioeLitAPEYpM4ts4udwDEBHcGBS9Ih1xjEVpXv8ko2texLjOw+B3xbY7Za6yihV13B0hmzA7NswQ2zzRiKIgZHP24LvE8f/JZqsvoxNXtCcGce24hOxpOJsUWs1mUCTRZB+5zPzZSWUZ+f6b4empbP7nlcuiE8TzFb3KesM7zG8y+qNpNmWbiuoejviXjiOcwdDDpUrMKvM59DJmC4zsqDk0Lt3BSqWf2yuKhiAgo0biBC1wRlFvB/MWjp6a+SeJt+yJkyct+f/FVrOHkiNDjrmFdm7xKClcbiMcO7KFKhGeUZJWa68QzXoIVG20xxYXz1jyv9EOTtntxNgV3xFBFWi++Gj2QVqL/AKiCq1TXMFZJVmLorrG28HXNPmPGKjr18wGbgAfOZksHDUPuB/PpywF1/slBiis6g2/X90N+afmYjtqrPqiF1KRWoYmiFOnEdtHpVzBOZ1slNxHtMipWalcdYI9oZ1ONTjUz1m2Zzcc5gys3BKbmMac/CwW5iPs5Z5FgXU1dJv8AmYMFo4iqaDHzL4OnpRLuBn9p20oaA9vTr/43OTiBATPmOYdYGvyIEZPFTI5XKB1QMNzxeB2HcuUrWrWyXOvluXmGW8ZrdWIEAauD3lYcgb6BCwqEjdxlf5mNiyB0OOJkt5mvHbsx4raJg7eIg/pf1KB6IOe34l1TjV63KQ1m2RGYO2cOnSZQMC6UDm7p+RChDgn5PoYMWLefmbuJYQ1QR1iFymbZYavvAyy4DrEB3lXAzuXRU03ALHiX2GV2RqHoRWJUDDH1UQksBzTLCWuz+2YWKKliSuHCBReOmFBYFO6gwFtevE5nHrcx6YHclldEx5cMB2JcAcQW+SWR0TBH5mWfHeV3U1LcVlbuPaVAAjEVNEACi3Oa8NewzmUJC+Turgq5PL+4irbPL469oUZgpC3x17xBBnj/AKlhpP1uYBfZ2fnvLtQZAP8APEAKCmHEsrM+ZjvFjUwuxxuAkFFcLjnvgrHWfTrIE2Mxe0C1mbqyXN0FKnVBKbmaplqpldUR1lHmV6zBiNQB4ntGxNwOZfeUrtDFS+8tnk9I4bbbdx6DnePYa595U62f3Lu7o/ToQx43Xk4/qJYo4D+fvEuwRxPf14fXj0xDTW4I1v8AGWAxgyFe0xV14lF/0iaTojxEzo3h3Vcrmv8AskzEbNLiq1HNWKF++XFCl6VumUTA1qv+JbqrYEK0JdGOened43scZ6dp9A/qZ73g5z0mGtPV6n/JZUYjKdItNA1yKmV1ifqWe+RWN5ZZL8qVMjyrMNez+vT8n0GSYw7SsjLtCUtiOypj/UHGZ0N/Mo7/ADMXPdFG8fmHiEA3oj0TBV1M1dyxSXevQCcQnmNDorFDOYM5jw8ZkkB7OIlttzMQ5Yj4g0+ZRHufTqy5zPJwv+n5jdCj0fvecf8AjmcevdUNkfuk3iKUzfeab32i66nD1JtA5KshxGqdxw0dKnJBAahgHXEuYQBdQ2DZgowHuHnc3Pv95UNdrHbXXtF0MW+HXvD2hen/AKmG1v11nRt6fbr2h22N13rr3l3WpMJ/2Xvip3/coXRo1kbY0LWxyXE1N2vBA0LPUZzFesYwGP1Mm8rnNzNPWGDWJkkSU7JVvTW38zOIiRnJC+kcsFEbqDbde8+szjcHVlHExL0EcuCV24naYlvEt9Ca1HjeJTEcluZUu3+YlukcjkgJQBwRFPP/ABPeMhNwy7b6R+CUEjWs/VnxFMWrs1j/AIwTIbH/AMXiPaIOrvHXmzfmIzWPKxwVEgInBuHOu8M2BKaijNwqGx+o6B1CUlKxfLCKrDqLJQGXBqB0WLqYuUy4YUSEmQkNCu+bwQhnB1NSqJZKhZsuQLGH7v8AiIVMtP8AzFwFxfrEWktx/wAIsDWxHv1blEwDNdPeLB4/UqomTrL09FEHJc25lhRIVMusvlcQwXKLYIc3MP8Akp1XMY3KJhKgDiV2mektealZvaagHBmZ8TimcMthgjk3UN5mgfzPs92fjRljhAHLf8envNOGO+wNPmUE6Tx95+Y7kc6TDx/XzCMNLy363LvWodEqMaC0uCglT4iC7y8egczFu5bMnMfIUJiW3zPlgmWaLq3BP7Qhz4vpzhtfieNRigoNRhTnMEpW8wLU3K3ALajNs38zINnXvMlODMb+plZha3YNzojeiZQODqZvUDWYWUu0t+krmW9YvZOckzcZuM8UPELOiPdFYZ5j3QU6lkF1/SZq9TyuWTA3FAjIG8Q8TQGYz6L+J/KCjil9Vvpcvv6Zc/hgPVP6fpAzrmqT7b+IJkPQkpV8fuef8n4+/fj0K6mOJkBnxHzRTAY8EBWZXaQLqZZ27RKDeL11mQCuKlMGAWrEeOV5Y8G29xUc5ZrmbSO8VUq5kCBbPLU74l5auXLxUstBzuC5Kk6Q2yvXtBUoOaL4j2YwhjZOIJeYCmXDhuFDcsu515lF5lrrL7pRe2bckqm5ZV2y7bZYaub6z2uF1qbNEOEpuO5Wae0vZ6Nxj/oGJXKMJ9fvFVn1mO+CFLw3K7evvN6i8cuZRwfftSiffv3mPf79zL6/fuZ5blMrLctlOsy9zQvvBabdZbwbmAqcTribQyfqUHTEvWPlL6+8b46MZKLri3dTZu6Z2E8IYFTq1iZ1ejUcqZcxfc5mg/uZA+Ic6JkXBcbjPaZKvKUguM2LsdsQ9wCEu8x6AvWoB0+J9RMf9J9hPsIFx8J9hAuPjHoR2Ph6B/kzFUb/APwDqfcYD/TAIZ//AAU1HpPY6koStL6MLbam732n1+8Nm529K/yfr0rt6XzdEXTRPv35/E+/fxPH37iePv3EpqvXCJh3TmFmi40TZ/Mz7bPeFWY7uHsmFYx3ickxyTB0RaM2pjZAhW0wG6gg6Vn0LSKJdg+ZYzSaV8y0aGPMQ2nlKnUy4vaD3WGJQZZRy7aqojRWIWIwcLEcc/8A7GHmEJnK4seh/Q8w/R4lQXt/j0xGjfxN5/E19+9J5+/c+n378/iWLPBD7RmgQq+amAM2/jxMsXzA+/4jm1B1gYpiK712jejRKd8b4I0mA45mUjhqKizB8IF8cuZUXqMrrNO4MYbgJ8NZl+LUFqrMOMJZyuDqxp/Sgj194HRpgJ4RwcMN0Vz0j0IcI4gVhMkziPcSjRXx/wDW5freGGJ2sv8A59LGfpUtP2ExX+k7H4lloHrTjHW4NSc1fPpbOf0YS0P6R68/09Gj1f1P39/v8Twfften37+fmefv3M8/fuY3E6/fmFpyQOVKu377zsSjxmEZtzqMobziOk0hAzEuMHgyhKBMRixgNBsvWDdc+IDmcGi6l+Elzk1uVDe3G4GFyZvzTB6CPjEX5nkiuABJUGeiBn2r+ZVv63ecZ8iM7yC5YbZ5Tlj5Uwen4PRO3LdKdtnfTtM7EdqO1HajNqO1Haj7mJ2h7y2H2CK/8J/rT7BKf4TE/ojtZJeLgi3HtOMMFw40QLBmZcQ/b1jPQLYm+PJ+vSiDqpmKPOfveJ2GdfrzMH7H36TLRbVhf3tM9ZOC/vaVUydL+/WZKzdL+/WDFjHW/v1lKxe9/frMNhTrf36yqqb3g+3iwAo5NxG0mvHE8+RFW43rUQoXcwVcFGPiYmY0hslmrSNSlQW3UOIq/EGjA190JyOYxi5cx2dQDlg6ZgOFxXOaS2j6pnZQIZsE2E4afzO2/mdv8oghf7R6f5TPr8oC3TfvLX/qfcs+xZhq38zy/LOw/LMnPyxdvPyzkz8s+1sDMfufS2fS49b8xXk+Z3D5ndPmV8nvHe/lO/8AmfcwGiRbpoywyRiDTfmZO0VG3/k4lsFwXCXixex1zFOOOIJi6vv8eiNBHX78zBnJv77zLeVma8ky83mf7x96TjKJ0/wzDR+GF+L4htgJiXCuOIAvC1TEdjy9w3a/E4NYZwOINgczzG6ww4Hpd732nJ8hmG+8/hGd0q2RVLlb4SnrmKXipdECF8ynf/qxI8JS7IZnX4gf/Lrc3NzfbL7ZfbPbL7Z7ZfbLlfpK4XC+yeCeyZ6kz1Jnomep8Rvo+Iiu6s9pRFXOM3vMbaaizh2XcMVQYqvSHH8xLkWKw9JhSD7lRro4NEFG68yzgxK5YLEboEjarmPPiGWIre5cB2wFoxTZKa2OxEveLjpappwhxW+k0QXhA4qJGpldQJxPfYh+3kY4f16YOYTS8CkW45hQMyvJHYMpGJfWGVxbXoP8ARqqDsJ7Jb6BcL9AX2QXqTPUmepM9SZ6kz1JntPZM9pntM9CZ6Ez0PmZ6Ep6E9kR6J7JTgLfiAeV2GC6R2ltahR5JesxxL0rDf5mk7coRiD0OZ/sRBwHDpOVTwlOgWdPcs7grponDO5Tp7opMwinPom5vrmIz50mAHLKMzqWelktoMwbjYGDUbsBxTLUxehlk7YnT2p+U9qFuKju32mNrKmEATD8zVfVSo2L0YuEqcYaEFaFuTpM9HzKehM9CZ6Ez0JT0SmFMKYVCoV6gVSqVdkrtlE0TicTiROMmiHJa2xnBXpS6wcQZUG6hxijOI00mgrPmcvqhM/ATBLsy4+cwUrzErXzLG+Ii8k4lMWaiqDXSIHJ9pWaNQ8RYkZe7xKP5JcKut9JT4eksQS5lhz5nMsSjHVQTF6gBzEF0B/M8HDDgHOFvFzaBj6EyNwLgFOfeYAqoxB9Yl7KL9AlDhIyM9vc9y3tMRRFTWbilVGCwUNdv6mQXOpicTjrld890r/SYZxpe4fcRkMqEmOnyn1mYjH0zH0zakujYr29DwmsnWOJlpHymXHSailW+8yfuiAGfhwKaheK1N0cVMAJBcMhzO6q2QdG0h5dM8TBl1xNNwcyuKahjcsYKKVblVhxm3Mvv5JLF/ELO7wQrR6HZqVGHoYQ6sDrjmkXeL+JjLAdIVprRXW5dNRtmnEFJdqtQdP0S4YzTTXoTibKYngxjEfMx9Mx9Mx9MZXg7mR8v1K10x3mPpmPpmPpmOvwnv8ACX3+EyMnbjtLnNaYftlnVL75c2QAtwhZcg1Pv9ppHic+wMo66IPxO9UR7ZS595SoQwZn476Vh0VKXWGLlGEHQJYBl947XK9YpwqHLDPFXaKsDSiKlAmaZY1p/BFVmQ+IF29ZELKXEXUdMQ8eDJLsvOYIWqAM7uU2dkWLiX7wb8K36KHeDKb/AIiEk2Sp8ql26YT4WXuB5hGwc2e8xRHuBANszTLmbSootlOIQmYAwzZ4DiVhgyyLPomSV01ACgVRrtFVIvslOiU6PVK5AbNJOzjABaprvPI+J5HxPI+Ik2k2eBZPr9p9ft6PgkwO+9QHT3iDN32jMmi6gI9AscRi1ez0ckpIhmOxuKhv4ka13AwGOHO5olurjm22PiMXK7PWHaHSKzGjmGduYdRHqMzOYI3TEze5SwWRxD7ialc+gYgu6VC0cQ5s3L6wpHB342VPcitsJmwzBnVQC8+IIxe4ltCLOCsRZNcs0HR49SVCOzsZYrL/ABBC7B7zDgngfM8D5g9B8zwPmeB8zbR8y+g+Z4HzPA+Zno+Zno+ZTCpV2zBsx3DH5obJ+v2n0+0+/wBpmFJvU4g/B0gZzKP8hHQwXS2XriAAtBiaGqmaNMx8eU7xxRVOe7MqClYd1DpUuyVtrZWQisbJnKFsdJZGSnLXyzgW8doSZ8yaR8OIhdw8VKEqrgigEbVTK2BhKuHabuKXdspTF95hntM9oOwlc4hhr0DURYCwrNIsfmGl3lQeINjEo0LuofQQGUWd4bBgUOe8qtDlnTA3K9KxKxK9GoWJplNnsyY+iUdUo6pjrmOuB3yjrmIYhjpGOn5TH0zH0z6Zn0zKC9GWUCnEG55tB/mahdUi1ZqisR/Hyyl9u7Q5c1MmyyPK/MyOYOBKnNQ1FuqiwbS0ZWlbhTWeFTS2z11B6BoqLaTa0RBbY6XMFt6EtB1m2S41rovoRmeRt/yUojVswxp0ErUFENdZs7xmj/UooO5ayxxKqh8XKfKA2YbxDREybIKnnM2xMYl1apgkPyIMp0gNYkauiDbJfeXooMOI9RPlLUxmCMq9o0g7zEcd4eh6HX0CcFOb6SqgE+S6J/mJ/lJqzy9MYCLWiyBx8qln0SyKRZN9ky4y3ojF6Bl6SgB95iFrUWAY4q/R2hbAtZ2XU1+/EaW+Q/E34pjbUCrLTcvAZ6JZJCvsqU3pcLYyoiAq7yiVeVbnFN8P5IFk6AJNT4ObFygcyu8U4MTOd1A9m3EsKvFDb2lFVerklwMjgbr3lGpaGzt5SJJWx5YTOvpQjS6zLBPnNupoGElmFylxWbl7tRoYrzFYHMojwGqlr8xVNOtxiQeGuSAZ2Om5m4bdYAdsbYLqZ7wo/gh0FyiZKmoAFlsM9IXZCXHNw3n+2Q9D0JzM7VXsf9ihGg9ju94epYANsAGSBiGO82EXJ0lNYPM8D5l9B8y+g+Z4HzG90+ZVAHBK2rxlhkbirjFu4F4lq2hLxDwjw9B9/tBt2bhjTmobPeUC8ka1WslS4hVxGY+A1KFcLjMS4Dtb+ekVZVaxvtEK1Gk1EMtWLazwNj/2UHCg3FhAtx5JikXsOJk5DgZxlPE3H9EejZwUyvMVe8WqGGsxV8PlDcqRzfMpfGWsSw5xrtOSeyYHsvcqFHiLGty7HtLr29MiDVLLFxl6ROi4YSbm+ZinUu3ulgFi81E+0LFc6VcShVzb/kSm6jwdv4Tu7g95foSoRFpW0/R3jRGg+rv63AgCrohZtL56R16IysTmOlemnEtf7h9bnl+Uvr+TMgX2uCbIqONSzL29Hi8O8Wq3l+J9Pt6TrR9vtN3iPGqhQ3DN6xBqiVz068zFg/KlwCmxxT/2OeXq5rnflTAVq7RdaiZCI7wGbY7RpcyojIItvX5iJS326jIZxAFvYdQS8zQHECkFpkjRvJKlH4hvDnJm+JUK7LoVqK3lVxKOlwiZjMMNxWrzK2RTDlN8QbA3+ZioUGwg2XtGFhCYocCq5fuAdkzNJd67QmWRRjGZ1wslF1lsxy/iDNvjB5lehAzKUPNKbexP8cD14lSLWdVc2cem/QcsMCiPVsqdVYqRQOtyzgrVdqmMQMjWyA7MfEC2yrGJ/wACfb7eslpff7TZfSMviU3mrXSbW76Tahd1DkVVw8yvCG2NG7cA2dI0L1quniHqdd5vNZjVS8bexzLK7tcXxDXhbGNwhYvwmsCjVlwYMYOFQ7tHlwVEcA6usWtGW4EjtSmDPeW6LtFZxwtg2ixBbpzxF+BIMvmI4Jd/OJkyY5gEWu5FzfWEqraJDI90p0FZjtrqFvnm5ZqctYj4uFlVwzEsZbNGZfbBmucr9jibNzij3lTxAmMLWsbXQh8AhrsJx6XuAztjoyXb19OPUblnAR8f9QP5Pre+jxFt3UHEoiLBbUCAAXiIVrJwh9fiff7ek/W+m+32mLd5DEFQsW2AoclTBsp0TFn4SqEinS4NGWBvEtRqnJe/mOFWLGLlmfAUy3R1WolbGHVkq+Q0PD2lrsvMNm45mZWEzYijh0uANFL8MMzRkhRGFeGZTarszllGsSpNfMxzmuYXU1z0lQWtMHVd7xEDLmFkW8+IE2KRUFql4KhCno8j4gaPNQphsdUpixXxMV6RyHZCNDNdZnw5lrlNWNYICKLdZl9DUYDWcfueYErfPBW/H+4CmZdNDof+OavN8T5FPX/yVzzo6zbUbP4EBp/6UdXJC67cnL9oOfvxPs9vSfrZ+9Pv9oNuQixLY3XfmcZ8JR3EdHfG48A5WQMUJhmFxR46JiivVyzjFwXDI8E21dkN8NDjSQLuwpsZoKj8yygHYcsRFjkdxaOL2uZastZ3LF+nab7OggJ0xzMKu6qrljvTiG3YblwMx4Xe50VuWIym+0QcRiYuBxRQ3WCDA2t7IAW+7BKfM+x3jCmoEpVamZBtW4ThW5UG81mXbq7TrLna/wCEvQao57whBuvR9aiZdvPTsf8Air6cvSVZr+f/ACR/AuMLY+Tx2gAoP/g6RrqS5TiG/wCv29J+ifrZ+n0G7xGB0No+eJgS9fgzD9hZKMAsRl8vmw8RskXZ6xhBVhnjcLQom8uZQu4jslY4i62p7yuto12lRoIXb5TPx8U3GJufYQbplnKN4yD2StiaaczJ27seyWjLxB5fnljQp2gmBjbD1hFgq8yilgWvfiY5UTAV1jwY4xMJSXcvBDzFVoc8NwUDHV4gJ8OMEC0R0Hid/dwXy1Fjzq4tL3KZyvwy+Z+DFvOMuPEBujW5i52urv4iCpbt/wDHQY3B06P/ACHlV+Iyct+Xf/H/AMiKOlNkJUKCZ9J+qfpZ+v027xC1bimzkyExlpnQipkUHMv0B3BseV0RWCamELQyCwnYrKobtEm8bmKlOoVq4aaLsuCjarVDRNm1SDCUDXG4udpWaxUvYGrrggeiy0zUS2m4Rgc4JQa999JiPjH2sDiWuq+V7jngveEIeWuqAwUh+oY05zxHgX08zUOlMUAMEMeJ1KlaW9WJj9nvxD2CUMDiNg4l7VOaylyxZE05BBY0XhStgCoy95xuXH8vaOWwbes+tmbf5g7w8sR24dsAAKDgmL9SKqQTbDOcdLvuf/rZxjiXBULJ1++5/JP1vokLfIZt6l+jmxTT98zGg8b/AImHvqhhmTpsrcIHHDeIuLFizmDJTm4XoXXBo7yibzjPEs07r4ShZSziVEFnSAWXkuiDTYrkI/RrpMEwvMPxC65RUvDhnMBc4mTqOZhDItOCxUACBh68TapXPeyOVB3fCpQQWqzxG7Hwu53YVErBcTfnggGGNzVx6BB2mHEdFalB0rwu2GgsY6JZcxlXmbI/MzLUPZBdD3iDi9MkKCgoOn/ioJAh1f67xGxWx/J7yv8A63OgDmpwwLn8s/S+mGrYB0gVwWO7+JXyx29IFU1FLAfKYq02u5tqxa54/mZppWpvTTfVIZQJ02wE0YHW4KBdu1iUuNphmGCQWZqMd4QMVBP+lwesdt1fxC2pJm9L3eZaVtncBZSq4esreViw0zRzlmYITnui86OjCuKzCezXmN52vEW+nEMHEqPMp4ll46H3pNgVC7tQtVoGp80xBspHCYIOifA0wRfJ+47gGn8EQ5quXMqcJWEbKtVk0+JjMr3yS5VS8FbgT3qtwwiuWMTR0p3A9KzFVa6m3sRt6Pg//AuCHAfzGMCjzOh09cK8dCZpYxeS8B2gYalPCszSEKylggKi0S2qus1rcREUsvS3jUDcALd7m11r5leMo4imnXfeLbcsxUbd41rcgp/EG0VXwtONMWVYQxekGJuOO75l4K5NYgoNGFNp+Zkb1AGDZl5WXDYZSGV4Ja6gVzdTL8zdu9MRLFJ5xUpUxbdTA3dpiXYYouDnJPaEVmkDAdLyQC6AaHco2svYgZx0MXG4Bhk7doYrQvIjkhRxiIQa1DcfuFzow6ned4FUyOi8/wDEyu39Dp/+MjWPzAWJHmfvT9EHKuhuFyFsNjtES6/ERms7iPIbWYWwhvdQUgdyy4he8dzEssmRxMmHcUivas1h4HAigsK6yx2wzUWIx7NaW9YsuNRXJdREj1A8yxh+0YzLmVVOdNuI1ZcGznUxgG9iEJTDWPkb6R+TgFjs3UERVq1UxX0/MUGnRGR0XuuWDIg596ZRl04IZu40GqmouV/EutrVljpwEwTccbN7ej0gYuH4mGT7TOdkl8zGBwQqwrxQ3L483itQItrx+JgWqDmM476H8srKra2//lvWA/MEHVYmLbsMYUrsamac9oZwUd4QlXRcTFMpkP7lBWPh3BX4MOl19IGOj6jKHpEVA7OJxI84KgtWg4t3EKoXPMVCkVtkzF0AWxmX2jGmWGAaLVa94ahiyd4RQBpuCDjupxKAp9QqY+AkrKTc/jEsm0u5Rc+0KJRbUIaV5haFXc2r+JUDUwwzuAHglWakxzyzTNgbDaFlHqSmHPdHZidX7l2QsnHXfcerIG8wpYqQzCwBlMEKeEoLnRiGKgQBcWPo6EoHEYRFhqYb1bMV6I5Unx/1Ar3yvX/89jMDmUT1ZAC2UPtMafcFwVERxex/cC94OlNEHOhZhh8wrGGYKuyJ+p2uXEMd1xvJKEbmAqJdoOoxcO7Q5jDe7rxNRtjDMctfHuJSsDrMyhpyxF+2r7eGOwpp2y7wRQzdPEb+yuDVNHCpR0o0jmNOgfZvJKm+2IuQHCpmbJwVFaOsLEaxmoJo64nVt8kGLmtGXgxWAGSokOa/JDNNsQ+6qIqoAT88lbv4EKmfhRLZuCw3ynduZQi5LZd8b+iWLaB1SK04+iYGDPMRtU6tgKXTEUPRw0eP7gGqnQJjjuJfC87yX7EvcLOIl7/kn0MKcr7s5/sl6h9jLDBT2Pmb/wA0K83vN7/NPrZp/LOD8k+plOx5gbv8k6P4Mvrhq2yArrkbwk2GTeX4RM1dVW/1LlhT64hFXgKH4jAq4xk+IjIBxXP/ACDDUN+DD9DIglecbzGOQM1ypWovMDB0Z4MfeFQzbzEqAtpMfDQX3bl3zmaBYGRK++JgqcOx+IsK3JqZg0BmYE2HmonVgU0NswcYVc6JD/KwvtmyGJU+HSZgHNT+aQEXJCdZhyQIgZvGJZlwr3mZWLrOnGD/ALiU7+bCSpLXQ3K2lTNjiUXU75JT/RP8SI1KHRA6sbX3sS/2CI1HOEsX6wCs/wDEXM7YCFlzxMuPknj808fmgJo+VP8AQTrfxZfV8GfemAtX9mV/myvqyng/eef5z6LjXf8AKW8Zx2/SksW3Fkpay+c/38OGA/58r3AbI5ZUddfH+oNbtYZr7cMWJ4TarrFta82URP8AnT+piBVnrjinyXr4lFbA750k83AeziqBcagnsGI94DtDueFKuZqzTC9JTdFPdFTK3CGyraYCHXcZJXtDzHQDpGYtJcPMZw3t3glMmypmPBWHSDok5fiUzMcvaYmq4dygzZkOGokSkmeUJzGtXGe06gj7S9uXF4i6gRrh7S2i9Ethsc3AObqeJYcL7uUw66ApY0rVRHBYcxpsWTBBbJBGZbXhVo7ScuM7hR6I/Mu2PGJR3huDUHHWsTJZbiJZcRxUqlmb3KsEPSZpw7kHApOB4lOYH4ZXcwK5Jlepk0sVa96lDVy4nIHDKL1rxLG6K1Q1lHDmLdjmHJBg0EbrvKudqIuaQzGNyvJj3iwXJwR2HLkiCE+U7hQ3fjvO2HPJ5iLBY6enoCpLq63FOK7Q2lXiAoUkedRoX5L3KBYQ7xur2Okp7o9pWs283MGfJ90VruTFy+NDpLWXrpOirvcDttpxHZudQ4nC/EvyfM5ex+Ijqz4JTpDieUW+uW7j1pjosbdGKqcKZilCGpUDHD1Y2YpNMTP4bQQAcubIgYLhZrUoL7moyjRkijxCU0Ki+zgymrpEJLvrUfEvMYAnaADlYrmFVSjUteQSuVHe4nMrKBMS4VaM6VnaKclVKLtxqAqXD8TNSnROWOzkmAbOkKFo5uGHqbq5uCcdSLdQjAcQhQyCHMpbZo2hypxqFnUidKvICbYE64hHod4JSgDYtxGBHkJkxPWZKfIQtDrrmDYgMNBsmAFuHTBaWNtv/iYDt0ESmj8wbhXmGR+c5mM7JgYoYY8qlAaYZYD3neH2n//aAAwDAQACAAMAAAAQEk4ahR60BkCHlLcTRwN8TVFPwWtUVd23roAUPmrHTE7tQHAMKtK+aGQep13+37Swkfaru0T5cV/eiYEqmw+fgXL+2qvMkk00W7ff6CkUBtPcmVTYo+tlZ+LFlx15M61qwpGAW5G0nc5umEGLp8Xxg3wXkKQmXDUptVTdeChwYEKierwWypamuWAPehSDmstYRASBtGBjlsN21BAHfBxiysJbmgLDhadqLYrw5rABQVer8pcQFqTlnygaC6bBc9kJuRcZYpSuqN3bZqJFOKOasNuwXS7DcCcb0XkCb+WjGLennE1FJX/EQXKBTsZ1wiKQsQvG3hp6fABJVKffMNItjEuRqygh+WCLi9Kydqp/cc1nPSkKJPeCNYkB2AgcguJOQ/7qFRTSAW0vCylbskjb2SeLdX93qW70+jZJA/NJD6ijtBiIhFUWSneLZp5Khrtbr62X77JyQphXzNW7Oa1APV/bdyyD7ScIvbWNdPP7TNNTBh+FWb6asFxn7yayuk5xhaWUXMCvFJIZ7C95Hf5wLpNkjXfLWcb+8ccv/n8oMWiCvMn+ii1NkfMWW68EppgD7gRvX45vjIDgiNvESqblCL6lUU3aim6JzBUmgkc4tr+rKqaDMclH0VEG9cJJHowSetLxh8sCeobtjJ9+msJFWgne7r0i8xr/ACr1rS0vPQAdUs1s80YgYterFZUCNTHnYcuwM6eqL8Ut4fgJJOgKiB1ttB3qTLjC1JuSTSAOPATNj9Lly9xropvpjF+zcVgVe6TZujroHrph0G5JzzFzeJ7cRP8ALSGYCZW8hpVakyS5Uy6iJKcoZnqQF1VAD8k20w22kk0pntqZZqkZ6vpw3cm0Blg9DhhOt83s1+tv20dGu94fyh64WkIOIEm19xva3RuvDDxBvky0k3JJP1+NkbeAGy1pdf2IHRJMd2wEd+V5K008krMy14GUkgpx8F5yynL9JddBXZ9khan/AKPeRpJJJptoyl+y60T7pysdbKkyPEqJsMgFu3qfHYdTEJtFtGWFvWi1BdoMYZwk116sY0huBi3vYb7/AJPc72/bQQsj8tt1gH6cnm35bXvArzxIXQvvy3w+RrbubcbRcdOlBtjB8XViRAB/WbNn/JopDiRv2NjMkFuWvyapV0kFlnOMzJJhQ2m4v/t5NB5kPOPZsbtkkmA2/TueoNMnJMmSS9u9ibXHeYs8YBDb+AyqRlttplu2VD+totSI4GkA6LyMtudGnuQv/n/MOdbVuFoJBnyVGwkfFBAA3BYWBvK5gCWy37Za2zqrreluylsYM6Fc/IDANvwqEDWHDvOXI2Rba2j4wxMKckD9s3hmatQx3hyYyDy2XDh8XE3mxDPcVWA3RhKkI3poPKNz2BwkvlpsZeOMgrK9LYRV2T3VeHylBbxaxJJwqs59Zk1Ts2MZ5Hrj9DA9LHpOIqcXoG4ImJG4J+7S6GBkviXdnqkCyxcT8G1/PUHKiEfo3AX3n7I/STXgmu//AO/H4UeRBkgxCHyV3dVXHW6apVd85N8EpY3+f3f8BUtcdKWR5pCJyiuytuofCYB4ASTJQpLdLXwk0viRTrpotWWkYrj0CVk8QQeSIh7j0iX7AmkoFw4Wv6S35assHJ4q27WEnWUfpvU6ZFommG0k20pVuqyBhAzghyTdFp40JJmovLn31br8ZKkGml7bUxQ+XZPHeLdQLGellCQQfk/x74zhxTBJU3rJbZbY34mWXVKRiBlvxzhko71BWXD/APM2hapG6ySSy222tuwiEVaJxNVKAHgonuEfczji/oTu6xGSyS22kzSZv+8n71U3n+SAHHGmlNQzPA5F62TmbPMtNNkAAvbSBb3zAoVJ2L84CuaMsEh6SEsAhFk/7pK3+WuSy8TANfkGr52naxGEP77UJajv9xPW4E7vBqL9u6EHz0EJePceKziNe8GuwMG7ffJYn1Hdw0kT3QwSw16NIC7wqcaGdWYv/8QAJREAAwADAAICAwEBAAMAAAAAAAERECExIEEwUUBhcYHBUJGh/9oACAEDAQE/EGw+QbWGLD6LBOYV4LZ6maoglC7hdii2JXFuLZE0KTR3Q9DQtYiGvo/Ya+irp1CiLGJ0bIGqNQRUJoYw2kX7NiD0f0ppC+xIhxuDJaYm+vDcWlLWL6xSIQxrEhS+2M9jQk2LQxCmOEEcUpw9DwyQ1bHDKSPQjiHsF0di22zrQmvYiwgkidEwVBoPTok0EiLLQ2EDkJrZn7j9w3expYJUxSOIdKIYoEQaeh6Ek4OqNbSDTGzYpCHTVHJuxQNLRh/Y08GM4wxCGjImMqQcGITcLwK6EqUIIIIIIwg2ivNSsrKysrK8b8t4347+GEI9i8FRGagSfY/3L+y07cDQbhjOBHQhGph06LHkhBrCWHhYcuytoockJmJaIIR9EfRH0VEE/Qmw2l6P5J+hIypCBvAgctI29GnoWnMLnqFlFidwRXiUUWXg2G5RR/GEEYNCawxCwtIJwZDFy8LKG/ReCdR0CVNk9TEcPEehh431kSiEJvEixRYKEolMlskGIPngnoYhix9kv7P3n7/Dj9A/oJeh/WQ9DWxrVwR0IQ3Vh9Gqw9FPYtjwsvQ9sfUKQd6iKvseDXCwtQ8NGKeE4Mmi41jXDxjdxR6QfcOl0QIUaY18FweVjtkm0NLtwj7f/s/tlW1jG9MfqG8JVt6Ev0FS2kNMGEMQhjNGqmE0aNUuUNl2mONHtmqhLQgWj7G0wxZub4UbTxSl+VcyolVRQkY0g1StCafk/QJCjHEMQlhxEomD4QSIkVIa9jhVD9n0Pgusm0Ic2I2qQ5ZmGi0P5UJHw6IxKkncJUg1Mrg8tHErg1Ha/uZvQvR+LVUY0YEyfMtvFEp0ehiIND4yaJtsnEeme2VqCY4ekU5ZSlWIbGvEMaPCZojoYQmZ3tofZhFKJJLQ31hcg0NYN/Q3crmSV+F6/wBz7GqVhNPwrGCC74Xw9C6ehsuGPjGtHti9D4z2y8EJscnFOSwyVpobrw9qNs8Maob0PCWFw5qHWeGg9rQ6hCcP2xS+Cy9iJrNev75T2henggx18K6ehw0UbHWmVo9sT4N6Y+jS0Lhqw9ohywxedwy+d+JHA8vQtKOWakwljKj+oT8SQoPTDV6V9CdxoNHWFlZYlsmhoSNEQ6QJdNaOpj6b0fY+wy6OWH+K/NC4bDvoU1UehE9z0StT7x3wm0NaeEnBT0S4dYub43oYiD+h8FIaZOD4x9F6N7NQzWkOWH8M+eeCEsHQloaUqYtENWev9w3IEv0JfEJJc8qGtCbOPgTZdDYuliGXQsOaHUmey8E+jcjxy80P5r8Kehi2IS0JPUctj1nwTLG2dC58Ncy/4MXBPeL+h6QemVaJ3FZHL68peUF5z5SL0cY3PC24gzKtfB78EQ6OB+bbEwtY+jWhYfT0IfCtH3iaP78FfFInwr4Uh2HBG1cdTYjQg15evBqjThucj80UpwVNw4MuhM/0bFwT/Y3+x/sfsQ+Ni1rwNNF4r8paGXQm5slJwT3/AIv+4a+hQdQ1PJL78DHw/JdCVKEmzp+0/cLeV4QaPQlOvwJ86Q0hnQ5Ynv8Axf8Ac9Wx1CofgmNe8N/eEfA+PJoJlL6w/FD6esdea+NfNX7GdD3P+fGfQnuFTQ0Qvg1SBN80IksPR0eykT4Ho9DcR0Nf+AZ2OmVae/L+l8W/WGPR48PxaHuBIsII2H78EHpfHhMwn4KLGLbQx3SOmX/58Ic8aiaCGqNDGLGWMXPNCbYhdmnjv4KXHX582MWxnLOmfXK8qYobXg+jNxKv4KdYQWGNoarzYhqnRPw56T9H8n8n8n8n8E/R/J/OF2ObGcs6Z/yTD8pdxmzfTfoZA9iW/JYeCNghKigkkteLKu80hEQREEEEEEREQQQQQQQRg+j4FVVDaErhS7GbWD1iHrbJ7G0ujRextIbS6VcKrCpuFRdUb0N6pDrLkT2L4F2JGINDELnk1RP1iEIQiIQhCERCEIQhCEIQhCEJh+ElWS2NYQmp+8bOn8cL/SNvYX9T/JU+j/J/kb/QdfWfcJGvhXZ1kTCOXnQTxS/kt5ljg2x44GQHQiEIQfhRYX6wkXw+p3BrCN/gNfQnfyn5BoyjwpMYboilGxM9lxc+8LMLwnkdmjeF8UntCd/Ies8HWduiPTzWVli8kj2Vmw1v4iBtib4Q/fiSbQnfGgSv4GSJ3ys8ODvFFaavflMahS5mZh9NYvYnwrsLovWKNH4vyam0J3w6G38D4U481lnWU4yms+smxPNELhFwlm/iPgz0yx6eL55tVo7moUPvwei/sSePfHg6zsIvXg2QmJ4LxWxCCfEaIfRN4XzD2/Ce8LNSG6jvKehJpj2qJBhrR60RsiGvoSo2Xc0RMO+sJRDr4ILGawYhqonVR/G1TqfgN5qQ1G7EmxqI7wlcEqbERPQleDV2JUhPQ0mNIsJ7H3FpDSgzBobjW8MXZ0P4F4TJFEFC+VpMSIyMjIOoTvwN4sH9cJUX3EPh3jZmyLKFJQUEoL+DW9DtHSJ6HNwTMMRIxROobTEK4Yyzr4eRjjEMlTEiaL+ClhqheTcw54Nt4V9EphHB3h4xwhKUtMXTgmKA36K7oVpDRa0GDYocLCsPCi78LHtGhOMbpRMWL8Ronkbg23hMxJIWEI4O1hCJA9tDH0+xQmJw4o39DexPYppCmsKjU8JDeLOYQ8rwajN0bYSHqfFfjapGjZs2NRqPCSyhYRwdrCFMIT3WJMM0USbOBsQQYrhumyIU8Hw0GEPC8Lmhj+iMNbENcWxJ+/wr4te0beKyh7QlaQ3uoQhMRpVHSDQg3oYkrso4JBJeFGy4pMQTWDekWDdxRZeCbQ70fcPDol9iWPf43sQnfJCOBWIKyCZ8EaTo8NHhRuH0jCjZSjYmQPmERDo9GJlYo3ToSuDhT2PETwWb4pfgexCePoXhwfQQ0b2dQSbxdHwIahIPuOzQuZhDxCHBOj0f0RUXRZQXgt0KT2OUePbGzeb4peTfyexCYsoRxigmtZ1WOtQdtiftghH0RsZbrpXBIWo39FhPZXZOWQ62e/gEUEIRCbJtiy7RvFLhfiU2hvTF4Pnlq2W4IhsMbEoST2z1hTHqEJVaK1oW2Uqx1ha8ix1hDghRxCGXZbHB+IJeV/ApwT3HlD54QcgnUJXRr2PhweNdlqHpn6GiHvULYkmtmyITrg7OCIPWDcIPg4GhRqxrVOmuTdHrCYlROlvi3+FQT9PL4LKG6foelgpcVlNhtlwnClwQkXhMT7wao2p5tkpQY2i4bTHB2aE3ctBE2rwiXPB/iUE5piHzC+KSWhnoWteDcFibJCDWHhbeF0MeM0NYeVRqwaHop9hHGGa4O3cNEIba/JoJzTHwXBsRCZaESrHcNMS9iW9D0xo0KDhMMQh7xdEGsXCRfRxg8IQ0OXD9QrfBMxFX0NCPsyL+RQs0b4QRSzlOiHouxkEd2NQWCXpivQkbbNLLej2PwvM2PSHWMeEbQgfoGbw2chzMhTEz2PpHdDf5TVFmXiTpxaFbstFhqi10Q2RKfRriEHj34qH4KFRoj6BMlwjJ9CMrSiQ2S0h36EZGbh6Q6xUhsjIyPEZH9EIUQjK+iMjIyEIyMjIyP6I/ojIyMaf0RkGyMr6JemjjIVUVEQSWBJ7ImDERFi+DkSrw+4nhBPaHsVWjUeGxuvQkRDSWhJERsNESCTKsaQU9DeGm2Ph3pEjhRtrY22eivZPSIegvsNPomRWj+hXIJw2w2PTQhDeyobNLg2IrbfBxoTc1hNQSxCPOxoSwh41jtseO5gkax7INMi4yKnrEuEmxHB/saw9CI0Ih0RPhZhWh/scqKoOBpeiUk2PWIawQ4d4JzEUomNMrGMlWyP8AkX3iU9eGilP/xAAiEQADAAMAAwEBAQEBAQAAAAAAAREQITEgQVFhMHFAgZH/2gAIAQIBAT8QQFQJMLg8cbE9lPRN4RhwW6FXfg04JCGxie9H6FXTTaFdDRszjRaxtexd0N3Q0sXSfT6DE0WuGyD7ouhHEQ0JHwSrwpUtCexkKlOBfT9G2ls3djsxENoW6FIcQ2hsemJpQYvuIMTsDqCRKsbrEMaw2L4E7ljj2VdTwexYkOmWa4hqhPWbBuloSSA1bh8h6iF7EfQn6PdB/ATDloYfDZYJ6oR4L5miwh4fgT9Df1CpwYcFewa9CmbbMOwcTXsdz2SY3cYXjmpbI5IJMjHdExsT2VsQRsoyH0S9rJDwRwJQZRtGnsifcv6nodOl8IiGhb4REYtP+FL/ADv9XXwYqKKKKKP8kfC/Bfknx4LfDNYG2NHAxiboytD1qazFt+yiesO4R7Gf+i0qIk9CSENwcjbTKRSGKw/qg1ei41inj9oiaj8MEO4NprrY79F0omq0/U/UZemNPsat0/cXZvDRKtOYo6iIoosoTCcXQ/0f6LLxfkITrLRwQzgYaEro3UxzQuiRDRGIg+EIPQk9MijGknr4aKHtBvY0MqQzeH7HOHFYn+CUQiXTgqa0mKDVehJwixTJJ/TRwns2I62R+jghOsU4h74N+sbKZ2EFubtYalQ2LLLICfhVH0qwrBtxkgzgY0QlGNUcnRtsEMZZoR74PFFsekemO3/wRSNswbJYu0G6NLuxu3RNpjRDbYmQ2oWUTU2N/RWMh/I2V0aDGIiD+BiF0fwW5SfaOW9PDH0y0TnCi/hxwTnoSfDRwbjSP8jNF0mmg+CwlwtI+xlPBOM2Okx/8JsX4JE0jaY9JDsY3sYdwXfM8z+E8YRkEsQmXhKi+wtWi1iwoY2RYlbi0nkpoV9HmCsYh42LZ8jUNCLobKyVC+CpxisRvZ7Q+L/S6Y+oZJCKhnTpmbEUq5eUhrL8UncDZRB1sqKuTTZVRQzYkkjgxcEbU+pwe2ad8Vp0dODbBhrCD0JEGj6ITHw9nrHsTF1F2LRIq2z2h8/9OibOR2sLHzKsKQhJt6I1ibg2XTgxO1RpLCZjU7hKSLQn7n0imnsiQ2P6G1Ru9FwmyIibNsfRuBPeOD38bdDXgliExP2wsVSZ4Ph7Ie8LguoTHoP2KVU9Ij2PqOGJWwevmUoe8QG7ix0Yyj2VJlNobuLCjTY3RMuEJ+CaStjF1wfR6xljxwe3kmTwf6OojmZfBjp6PZs3cJIUTRE2TSGukqCsL0fUcjrC745jyl4L/iWX7QoB1sZ7HtMSJ3DlTQn9sYmEEa95tGs/R4CyiiG9HsqH14rSFPovoWpD9nGhcKts9o4HWO+OI/NLxWZled8HsGZ0j2MrTw0FTZ7444cfSElPCkTJMvuSCzBY2C6IZRXorRt1G0NrbF1UXP8A0fs1o3C6Jtqbvjh4vweV4vyXgsNK3H7CBPZNzBXR74SiSK+y3sbb8mrE1HqOj34+8cnsQyCPYyCqsFG1DiPpNrD1jvjn4sWL/Ni8rijQYogM30e2NNjg/X81oTVHOvNt0vY+4Z/6L/R96Na6f+n/AKJ1aJ1Eey8ExL9A745ZpccLi+D874PCwhTkdt4w1GmQttiJc/mlWVyNrRVFheKaHKe8pujwrCujp7Emz4IU9iWzrjl4zKPZfJ+K8GQWIDBrMGqj3gjlE/RPhf5PTPsaHQsLxbcH0dSpvE2NUn4Jfg1+DX4Jfgvw+DNdaGtmEo5fwc9Zf4MX8r43FELuYhImCxaRTjeVhpjTX8Wjs2EWE/FHY2tLfo/A/EfyHrpRPxu6USoViXYo8ey+D/qvBvwQ6qCSPWcnI4XjTJ88b4I3wVoprC6Ifh7WWw0QhgvFi4Lp07eFw+4ub4vwTwhlH4oSWFNc5ORwvJSp9OZmUJly2vOvo1YezjE2XV5sW8EM+2WQf83/ABo/C4ILVHJyHxG9vOE8UKXYkFqwvFOHsGrwsKBOPCy80T2fp0GaEyf8H/39c7+uF/U/Q/Q/Q/U/Q/Q/Q/Q/Y/Q/Y/Q/Y/QSUu9nkVQx8RPDfJTtoRT1hcEPUSrY5fJm0NpDNjn8RkEtkOmH/wBrK2xvtHs4O0Pi8D8pCIeiYXBMpDha81jnDZQkZZ4TKPYog9HYp0Qov+Gk/wBH+z/Z/o/2f6P9H+j/AEf6GkWLoWzk7Q+ISFxPJqGW9m4WEJuii2NEvJ4RyM6y6M268vC/SJUREINbaPzQlOpLyhMz+DOP4d37GtjZ0RkhtT1OGyNyxIkiiTfBN8IyNkfSPpH0jIQhGNdFopsTWh+XvDBNNaHg37EM6ZeEQGvaxSlKyvFKyspWVlZSspSsrKylZWUpWXC14DQas3+D9OisUJJzIghT+o23Siiih6x6GNodff4MccaZcMWP4rENMamIT/pS9+NLWxFxn0sMqMewhRRRSsrKKKOhjfcPX4PwZ7nNFhizxrPoY1P+pDOjjDREObd6NMNLRHwa+Fiiw3i5tSeGuH/I4Nlnh4rw9DGp/wBCVHjo5xRyaG8bT7izhD/jfBA4jXcPX8jl8G1ynH4rxppjU8YBuv4LbKGp5JDz0cCIMkqxloxrpy8WyF2GiH5JhIdCQaKfxeJmWKZXC8uBjU8OWJr+C6Q78uLwXTjMh1bnM0tfCNiZ0kS6xT0tCRdILSEnBpYydhPbHWW1op0L+VaePcWEbPFeacHM8kHak/h7I+HR4yZeOjnLtNBuhrUzQ1GLgQ2poRYXEIijYlTY22TPo9YmqOPCeKcsciGL4l58FE/4lrxjYkeznPRxne8KdsVUNbCdGz2V6NV0bVTGB6BtdawY8tmrvEB6h8/g2UQ2ciGJRFEFlfwThxf+BL3mUsSjaQqHOHpMekQvViDuB1aIx/RV0Ng5LRTZsW0jng1vY0CbxEfTSQp9DWFsbQ2heTx7ieCGbAqr8F/FmmNlRUVFQoxqfwSxKL7w3Bv6GLTOXjkgxu1DKSezQG230re9i+hRaE72NEHNronqI3U9jekHwJBtXWGxoT6E+vzauE2LFDKMkN22TK/gl5NiGgfklhr6JJcw/kbGM6OcLUJVwUBWkiXDv/okiGwSNJDVc0MLisXuwSaFB7Yn+i4XZs+Q1V4seV6M9HDEoMniC80vJ5TgnBPGUhYaIbbyx4OXhjGQaAWwghKMQlH0q0SEItBo0JmxxV0S/wBEEp6RTRsZdDgcMfSQtIPQxiwx4mFtGrNMrt/JLxfknCpmjQxWhOog2/BjHg98Md0zkRPLopuIbNCNbY+jHQU1Rsx00hi0xi6NOsU3EI9sCPg+no+DViNkJO4LDPYyCLoQonWKmC4MWPhL2xoueSXlb5JeKaemaEy/YxjGLTHiYn6YxjGUVIJxJipaHS5ISPpohKuGq0d7o0/Y1UJRJ+8XD4LbwIhtsaolMQawxYJkUWhYRAyQ2vQ3d+KXi/NLz9DGpljHhnQ4km9DiwyWuM9BDoxs1Hiug1BRiYdiVsm6L7fBvYW5h0SE9j1FtiZcIeGhKHIyjvoWLq80vFvzk/j6GNQeGPD94Oqc2iGqJXsXQRXehOumxJQhbFrERMSOCSRUyj0bOUVpRMWGKh8CehISFEn6NA95FLoe8U9GlMTtplTK6Xkl4t+SRJ/P0MaGMYx4G0hCNMNMQkTo3Sa6JA0bQx6T9kVEUXgStfCg3s0lRXSnYS3Gh9QaWQho0dwnDjR62fnxrDs0MkPfCLJ+C6IVvwOQSxCYb8kv7elie0MYxicd8kstgtvExWFHadZHRbQ/VIvYcghvYc5BRAY2JOGg00j0PVh78lYlvN9H7hCVj2xwrgrIz3SlKUb8kv8AghpjXtDwxdHS6fsfoK1aPQk2l01DoUuhoqRK9MXq6bJ8FumJ29jm/wDRKwPV8+k2n6BDHZpoexjd0JNnwJXRV53YsZ6HUiF8OG75UENw9k9kG+xpJDSXil/xQ6NXawzo7/8AQmjlAnSg6Z6ge7DEvmNYfkNW6V5o2iJbEoNH0SHXsdRvCNsrG7whSROCO3zT2WwjrK1sKvh+jgRRG/RuLQ3e+CX/ACQGrtDF07F0iQ2Jje2zXRvudPDpIT9IGi0PscEvrGn0SpBP7Y2hjTlPY+xM2Q20hO4SwholB94JiIN6GzbGPQKnMLWOuElI9iwl/wA0Bqqo4xSKJoZdHEQmS0NsKRMtd2JXofB8Ezmh+wTxHoZulEaP2M2khDgd6Oza9nKLovYPYtFBtDmqxvP6d7xTwpQQ+4kxV0aJoftI9DfBLppwhKYSn/RAl4atFSMgauC11CvqGy0G6j/BE1voyd6JKmjQDaYnXsQ3GKuESjGtlGmhJtHWJKiRE6Fej02xqplvQ2xRbGqxseJEi1ImnXREWshoHrQQfQiIJT/qTguovVj+tC++kEooNEjPSj0Me2khHpDTdaPNiJ24QUlQh1gkKCGNH04wcaGoNvwRraEz6OjRsbn0/Q/Q/Q7bL4Lpt6LiT0foR9EwHNwSY2QT9P8AZP0n6T9P9n+z/Z/sj6R9I+kfT9CPpP0n6T9J+k/SfpP0j6T9J+n6H7H7H7H7n7n6n6n6i+gy98v4J36EpRLFTTEH6mjo3+yt9ExpN0RKhPdINDogjuzR4Wns7oSbGx3T4VjTGz9GTBDYxx8JrGkJQeNveN9Gh7P9NnCwez0Kss3BqCTZwRBVjpEMgxs9YWtjZBjDW93wehiFCob8LhQRxjzgni1aEgu4WD6IpJCDgiQo2N3YkISolMbLTcIbPRBM0PRUxpC2Mo6ylspWbHR3Cz6Nmz/fBeEIPKhHV0bNGaxNEEiMhoh//8QAJhABAAICAgEDBQEBAQAAAAAAAQARITFBUWFxgZGhsdHh8MHxEP/aAAgBAQABPxB6YHY/CAW7k7hsgAB6zSAdwGhKtMwIAQWqeormV6H2gyRrU7DzBBS2335v2jFjpeAAY65erMQy5Z3BWYW1V2+kA5bb7nDI1XcXZb1dhX+QBdsdd4/cyKxAbYYacsyLrRBgGV2VKDaaBSvBnHL6xmhUde1+fPkjNtVu7NPmUScIUe3xDMoCxkAlDqruC06rt4f9xM6kKHfX9uUQFxQeqWMGUKBeCMMA4GNXtjCxIMDW8/WHJeA8vH94lUAwRwNZ/uYxVkJqrLcuFVebX6vEAwEbvcHHzGEpgo60L8bh+A0mtgrZ4q4ev4VoDhryLg5loV0E0pejnMF+E00t8+MYxuCHGbY8XW4uW8sLb7q3mJaSjlpOb454gEUvFqjrWZgvtBUrL/vpgilMyN1ad83FIKhbTV2n0p+IlY6BeNr8zC584Qdb5irKAAXWtICDcDFDfW34ncwDqqvP4+ZUEWojluuduv1FYS9Q22cEvFbMAWt+xZEFtLZdBr4uIBhoB/ntKICYjVV1AryiBWDecektEVqm6sCUuUq9Nxr5LiWgJ+uKlJs1UVjOvsxMGzAFI9VCiLK2OGsec/SHewXour25518zoTPbGpjJMUlGIUQFbejjwRHBPAAH8kBjhLnz+vmVX4Zh2na+n3lgHaLocXk8wXoDltoa36y8ARTQdkCsCusLeWCNBxefDXk+ZWAGwGv3My5Zu6Gd/wB3FIrTmtvLbBM4BsgKFFx77iRgMi8tTKBwF1pxMkCJ5A/S7jUhGKvP33GtW1SdueGoSWaBs/UYbTOrB7VKyW5YwUOcAHLqMDaDPNBco1y8t8wcVBuQG0u+iDo0NNtbcp4Nw1Qmt+PrBQikoc8Wf1RuEpqteDXrmOM0oNCj88x/bNtiq9O8fEvuREbZbzXxGCIq2P8Axv8A5GGmqImDH1lMVLAGiz0yEu0fu0a2363fzGHrFbNuDyViU1ZgSi8BxWZqYLiwzr/bgjAYRpKz4lP1jNrOf70gpVq6yN1w498Q9OXRlQYLavO31jpJJ6p0Rqoim8rvD8YienuwNXbjLfrGayIOVxnXg+ZXEAvs1q/VfiEKg6bve8S7DwoGk8Y3HmVS5w9CttfWVNKcqOXH2hprIq7oV/bxMqDI2FXbf1qUb3iVQ3rXp8QBsoguiwKkvFauFtUsgDitVE8FBoaPB9fpLrCqMj09rPeLHiAqUHpf9uO2el4+eZRK0jiHNNxQA5KJeHOe4ctsXYghQEymhSqo/MW9u0rWV5zENcBLoDeM56ubxcECnPr1F/XBBQY2+WA8SUl8qz3nEWio0UzWvoR3czhd4O7lCjHFLqn3hVvsi00/3UcQ8We8g+sDaKujxQbgtSzxFn06lmYq4d4x94xEKijKwwEHaHcB4XIvd1KIRU24gFVVV78jr253DELTbbZnqCrKeEyhA1cdeqPqmLbXXmKAaqpeMaIiW0FlMO784lk4uSdK0kMrBKHANf5AwqrQyjWokP2+i78MLLbbSozaWX06jVJ72+6uJMpAS7fmVA5dKnJW+j6kVCNhX7PELFhq2khAVX3T/YyUlhU4XeN/1xIwrdVf5eIALyF5VMmhfl/2VgY17Ky434+sOa5MMujlDdsIbGnwzNXZTb5bi2ZvKD7xvbdCb8LmBtP6esYw3Wt31xCvRPm9MzsCtuo63HeN4BxduZyVoVyn5mEIwtftg2cL0vrGlYGj/tM7St/TBVNDvu+YEnPk/wCkV0t5OT5hVgvI4fmBZzYJn5gRRf6Ygoxv39jM3PvsTN2fyps+z/iB/hwBE+BAP7vpD+c+0/uP8h0P8dTPj+TxA/6vpEmRP44gP930gpZ/V4n0/TH0g9W1C1t24ggI7QfvBH5PzLc3PRxjPOOBr3lnmtveUWBjiL64vD8RSuLWH4iRyx1PgODnmVr0Vpr6xoMW3f7MjlFq1T+9JUO45N/EWbHrHlsUunHtKv3NDd5m4REL09JlpW+ItqBZVzMjV0YYEbCF4YJRQ03V5lhHI21/cweQbqn6wcQItX95g6TiafX0lcjX0I2jyRJV19Q2GdhxnFfErAOhWOAm6tycAJ7hlVDbTBgAflCDFuMt1R4FpKHL4hvViDdmAZ9sUFU0tmiv67godoOYLzLAABQDNPOu6RAy1Q361KJSYFBbATcryvbF9ms5RTuAvbGecy/VZBtiW4NF6+IPQQor9aZtWxtb/YJhA4/NCNrNsC/WDJQKual6NZ5X1lICjReX6zfzvuLMy66xhyEnAwYsYtkLpBeiU4jmLSO4aeAAulqkxGOBZH92o6ppeORxFmnapeoSrOpdR9Fy8slNmGt7mPaHBYGbYxRoPLMsAMUbeA7jkzbwL9f7iLsFzj/hLLKdXk9BUtq00G079kwu+fHCnEMF+P6Q9nzAscYqIDgV5kvFEAqbgKD0JW6rv7zLHX5YIxqCcb/UVpa0dH1mFYV2/MQBpfIL8wVVq4tmJw2VZU3arbv/AHcfzQIV1zmZK+RJjpXt+kOBX1+k25vQjB8Wfb+Z4r1/aIwKZZXzcrwE4RXAibLQslPSWp45riCL+gqGqKAOYkF0KhTkKtbqE2oonvfHvKGbxTlX1zPBRvThNsU8S3OCI7BtLqF3iuWMinGYNPJLHtk06fMGWd5b3eYGCgBSsL/gkqwC4tTWlf1UuHCiEPmNu+5ru83BdCpfvt49qUBC01qD6KuBWf8AXAmW7sgd8Tffd3HgAVwKfEUOMXuo3qgoWNa84uG/IA1Tr1jsFgl1HL16R0FC8jmFyEl0DZyDR9pg1oLTy0Sr/wBpo/cxBiaywPcJrmhzwVo/tRKrTQFGv2mKVtU5+DmOSZvLOR8XcZELOpvLjEEjwUp34zmKo1bWfrx/kFTLVa6yemMf8ggrCiwUekckzLpQes/iKrUx4z6PMovEQBcekqHC8LO2eIKuLV5Qe+PeCioRSl/2Yev3dlbwWlsrxBKiBL/nmAKmOEPT6feMG3CYOXW42YPL3wl90+jZMAAunD2ibRaVsQwK2V9rlExI1dqSigRYW+AJ/U7gMYivjDUoCtvpuLmLVJLZ/EbhZyuihydnk6irdXJbz+H4Zabcbu1x/U/DO5S6a+X+/DNa5ih4OvP0YqspVUfH4QJbcq8dV9yyFq7D358McZ38J/tkvEB5UXoj5RH4A49Z5uKmkouUdkL6FLAAt3RDsjhKqVEF1iNQW0g6iCuMEA6hcLyxowANOMal4l7AYcekTM1aPJxmXfm/5mTYkwTBmlu641CAlGVt8hocdcsPWAAxdpgqLoxFtvq8FMOa4+crBpBow19kXBeV2VW/dECuReA1Q77SYFqun8jFH1DUBNGVct/Mt4OiGk4Aqwx4i7ri1i+7ftHodGjAr5MstIJfBnTrBiFKFKRN7ZTgagcomWcIhopV0rEyeFoAhYxd5zXo+sBrRu6pIBuJkacG4p0W9OWxmuY0VWW7L06mOZvIM+ty0KgNX0w0BcUrW8zGoZ6vzEnkL2VUY0oKQ78YmBkFE59f1FSwGcAp+JbYCZVDa311iDWlizJ/sp2kGMxqtjIMNNX71mPsthrk5zzFChSL/EX3VjxBLAqysGXx9eIvpsbtsr6xaonFKbRKDJoWhZy/iXYWENfCsDbQ1RXvDUSFp0awD68zKALVn7QboGj2gmg6rcps1vjqFBwSluij7wm4+WfYdHXrLv8AJmDcNJosceIGejZiO7g4MQUrTOlPDE4U7ITocnk7lOAXTzx74+MJAKtjquce/wDn3ONDfDz98vtmTVDauLvn2WL2FQ2W369FQoDlBeXgPrX8ul2CoWeevN+qQzKmcCkr4/4Inaxi8P8Aff3lmgmR2X22bhi4NLXuESpiOpnF1e4CQu8OauOAbV2Yv+YzIBmxj2gsQaR/NwyDSxO/HvLFkOFw9/aElAsCnxwdMODWxx6EVV+uim7W6xutxKqKW1gCtd78RJp06NNwHOOZnAGiJJROt/Mqi8X7uBzdU78TGZQtyZbe95+keaNBpvd2eyvePevtC9NirKb8y/OsrkbAjuwD4iZGGFWuebqNFNKYB8LMqGXIo58UXXzFQHjgxg4ZiZOjnq2PUMG67I1Ux3wCr/qhjh1AClc+X3gUxaGny8HEs1oHeIQp6lmBfnuBZQcL3AhQX3BEnvZblc07gXRhy1FSpfSWnAei7hDTnPb4mJACKGlhe216IhCKcCr6mAKM2GZZL3xKGFndRhPrVRvbOc5S8RQLVIqKIbtKmcCDvNssuqb+gijvwbqyAiBZ2Avg17xbQJ5xzEhAx3LIpUEzrozW/wCYZ0ZBSF/yZYzYORsjp8iwxg4vzEAuneTH1jmxUeP+JYmSttch/sU1zvO4AgltLXGzvBn7wF3+BYhyuQw9zbY4atfysfODWkpVcGvtUSCg00J6UPwIutYvqn7x85ZTleD65Pv7xciBhBcfrFeh5loNZyI/H395fbi6WG+MyhFWp6mLMhvzEEVrP0gSiKZLJj0s0GSajb21RV4+Y9dhkLz8c6iKNeSzRtzziZufxDD6RGWPKqhXUsFKAvyn+EQQrhEBURZoEWIu9nzMbvaJSCYC7qsxPewLmnItc2VBGlCQIkYDpLz37KbXmfiqm2geefMp9mbFBmg6eosE1Ks8Aw3LNdM6VcMLUSiOajXeyKcFRwRvou4cQ3G+DgviNw7SvaGCGHw3DWc8DxqJ5C4JRfr3BQDX3v8AxOFj8CKGGumUyqHZCptKzr6xS6X4m9BXfmGAVY4iLrF4gIs7zGCqfNSmja4JHBzcUHFEskGK2xucrpiXS1zzER2HUML4XCrhPeBA8szM1PC2r/Msrg0UPeJABgG11fGpaoK2abeeO5cVLBy4MdcxEAIZo4fMXRq2m2LsalKr/sRmsyiUFdv+QRG6W8dxfernBxn1zcxuM2bfcH8HMNitpAcsENVguwCvmvi4VvRXDX0gtBC0EVHjhLxv6/uB0/viVl8V7XYxMhHIbF2Puy37JZQ22jffzfwwx9Qrbd/N/BPM8j1Wn1QIcC5yo/5T8ZhW2FZNa+1EGgfoGqhbIC7F04IOHfCKPT3jPAFo7gG2JfliDEZMO6iCmxVSzHtDVS8xM3X/ACF2Gm1GcdbgiggVbuV7e7AK323r6wIXKttWBKwO0f3zB+At6yktnjEYLBybrMm6SqZXf7JeVWWBlavuqiacFYqS+y74/rggsPecOnFefabGEEwaYVDMppFlEVvhdwthaF8MhfEVMg8FcTZV3AzIUWmrITVs1XRMC/SVfw5TTMqmfRjNUaGN3xcMHs8ZuDbBQL5NERYOq6r5jYTRizUR6wijnfmWxG1Vx6x/uC7MnrMThuuWOhkKMyooTxdDuFqoXjcp1Fmr3C9W4o25hzqThMy2A8K1GqBFK0TLDkNYEyQU4xmWRnAq3EAlO6OONHhhedMQreNOuefgtKFEUV8VvXLBRaw22V0DvUcVWFVS05t6gQRApKM+d/WMBsVjodbuPmfNCtujX8x4kIRQBAKpr+zC8waStjAsCnlgQRYa2Bo9rhWbE3FcV4/8oIvIR6Gf8lmIKFmBv0xDUdSrF4mtepKqlhviZOsVNjmAXczQ2cWd2GfECcxWNqtK5Nu5F+iGsdfH3YNhg6E+L+j2jTC70O39Z8oWyeQfjnfvEDTeLS+8BABlwzzCF++cEvXbDiKCDRtd93CArsW65qO6qywZrv8AyZnNWqlcvtAbSqqssNlwcMRCt0Y9OviCUm47poM3zzADYyLfJ+o6kDKgNOqPObuOIVu5t55vPmX8EAAWwYK1bH05zYru+kMgwpKU5FuvB/szoM1JxSAcTL+8UwyqNMeZx7Hh+JfO3FXdur3xC1IQBVyU7zL60LtOKpZiAAdX1RKB4BvUJCmtZHUZtu3TOaiW1f6EYkGF6JqWLBtiwdH3uPysqq8MxBCgVqYg44g5YWmFnrdvlFsolMAI5bi0hZlmu4ocvoS27bqYwIsb5mmZ4ODxArBisZm4QUDuGhnkWkwf6sMNRlxsYVUbKQCiZMVoQPshGFV0wzEBvOzUHjJwfpAAXYbgQKmSMLFRrcCmdeGFS/ZJR553xEp9IDTLRFnvHZJUYC0J9f8Ax1OtTRpQFdwuuZ6vl/cB4fT9QUctRryjS0dmTyPEPAA2haeROStt5Qu4l/Ic85+Mt5v2jvuB1I+BXn637VLrIyDKeLhxAGtCOL5uMvLMyrTQ2SjEqUlhz5hA0XkOKfPxHFyzRx/VEpSNC7ff6SqDJdIuLxHtzlXDk8n9mbEVTIhar6wnKC/XJHO5QgM94NXjcvKLYMC1TLrf0lAEI6kuwBhxFo+neOsO2Mae2AoqWNULo8suhdBTVu0cZT58wOrptWFGM+uoUgMCs34Sx6cGgDuVVRq7z+Pnu6hCnCjRArjW4cehu6tcNLU5J9sL9sfaWr9j3wFNOh9I3EXws13u9XuGBocIqNBtv0JYF80LU5HTxzBSue2CqMgVKtBpvuEqNG6mBLtLgqNOguBAhs4I4Y28x4LesLAl3z1DcVz3uJ4F0VAFyvFSwKblrIxyxNzA3W/eG1MsKCqq8Ygi0lt91FNlMst3b9Q0Bv1lld3l3uMArARUMYZYoqxhmREFjCUTCem/i3AcEQRwxLmFbPGClKcfpMWsliuNS3WoHRLWkDFtfeca+n6mf0HZcFQWBPpb7y5m2roV9ZhvEDXcNPxE2S/8iXaJ3+hpvnxzLwpvgY5XIYZcRj/D217QlHVxomNuyK1Knwu9RItMSClhdYx/XMRwSB2nc4sGmbIGLG+vScAKEJRNf5ELkKxpsq87v7QNIi2WDgrcvsuqb9z9y0vQL20SseMxDPr1gz29sO5SwM16stc+0dD0zJvJF15x4jonYoKiugWyhfSoozgAN2GWq9XVVDoBwWXcso576eauJ5Fq8CBj0zLKSxbj0YWpmNzxU9eyXbQBVka6L15lwaBXBTOLxK4VTAsrSZkz+bGiZHnBQmK03f8AM7K9nbj/AMbT2uPBE2A9ECKPF+EyejzqBprN3lmV5Jt7Smixg44hKU7ybliJYYGhTLERLaWIIVrc817QcICVmKq8BfUMop1ceqX16y0RoxuooUHTncGhWl4lU4ZmoKfmYODPJEhdSxCBjdhdcxKKG8R301xFbAFGmCB22t9i4PQmO0OjDwM30AN7LwXODoWVZ9dStj8jRaMu5FOqltBbbf3DX6/U5mv8o2tBfSES1MilygKreyByWnz+4af7/Jmjf1iMu7QvY3Ee6nAHTWPN+ZzYmglVEcuAt3GEG7tAjMUMpzHaxWGyUBKDL6Qa6mHbzxFMM4OR4/yFbXgLy8eKhC5kU4QBWO/EPvUkDIQS+t16yhtdQ8FD1IUQV4L2QpwH7UXkYbUWqndbgKgvjZ8xVoUIIKCjBX9iUAXDsBnjioAuoRKB68L1H9XkQeBCzih+Y5bUEd+bqXKSCSyr8YbIR7nOEfSnBvWx79iItyvqlLWh2ihnrWgWoRS6UqoT21vsTE6K7ghkOSZcYvzxEcmuGErD1MyCm+JtqqDgnEm2BwwYgBaqCLhWeIAGj5lTh7xFYBxUWWe0UCNfBmEgeh3MGF1UQANAblGAvW4Doqi2KTAZ31ZGqLmIuD6xsj8zkOKhy5VTKfLCgzeN1F6isqttdQQK6YrEOUrZgqDb12I8cqhxGABtwMsSORflxGcRbYWuIUhn7RZmjgrr4mHI935heZ/WmFl9M/SC2ZfrLKsn97zg/H6hvn6x3z8/uKmrpwUvlhrKF3snXmKhd4Eq6HoIOTCnYQAkUqJEUF6b7riALaDs2jiYbbjVvJ543KAVZRQqm630QXd9ICjaZz9YudUCyt+c/HtEa+KVdlhdVz6wisW7AjeN4MxdLJBSyie1vzHZ0BigHCLQu3FRnoUsyZHtSNPuG6WxBAtPGUbVQfKoAWlmbgcrZuqCjTptnhlHIJvBtZ698zNJerDeW6l2JBYTOWlOdwIVrsjltd17EsIUXGfLC8ytbPeMAUGE/vH1jMIeis/H/l1D6O8EdgLOuYGluA4GuLiowUagRJp5WPSmj4jXVdbgCJpfSINjEdoHS6hBDRzAUpVrVSwq1m5YRbBUzDbvuWUbC4VwSyWa+8AWs+bCFQhTLuAcAKdwdLUPTcoNcRFqnGiKVVDmCl54lK2VMXs6lgpS9RzDlNVy13LYFZK159ot9eyght+vMzCIQBMYF88RjQO3EWJu5eJlDQX+YwrRAXUvBn6/uVb37fqVhh+s1l9/3MKwfSGEx8H6l739ZSi3++Zdv+QfX+9oTKuizeaxEFEcA8HrHS3kmQoAprlDUvS8B/faUkcLd15nC9FZ2+kDmFXKHUC69qs5U1frU1Ja6DIh8fX4j03QLNccr9oRMlVpesOTT8wSLLDoFDs5xUEu5JzoVdOKu4lhBQp0LjGONQ6Ww53XLbI1XeGGJKz3xg0sDlULasF+ZYyihTrJqRBTWhv2ZRRnColauyuTgTakYKtNmDHZnTnxKuJVguWLhjzLo9s1s+o2ekU5kVTw5YQ1HCyLNg0f9PbEMYhwfSVmKsA6PoQ2JbsxOtBpY1BzWmWcwMwyYbgXpvAytSB3LgIlm7gwpWTVRgTz1FMmjjG4gsFus1FkBb7llCQPM0nOuGO9D19c7ibhrgmQrSuYGJbzULARf5c3BWfmDljZmpotnqbHbdwE9q1EBDfrL2iCyJNyGuVXWveYEGdceCv9+8ICCFjdW4hdQBerpe/jiU0PAmTLTLxCLvlCqrs9zEIINUtYuh4Qb+kuxk0KcdOOc+WqhRBXI/uCXm3xKxp+P1M2YfrLwf7+4U1r5IGXHx/yZ7fWLnL/AHzPUfSUrQsrb+Yj35mH+VO+0xr7zg9GFfy9y6UvkjcbFqeQ6MQD1V8Rj1RcA0TkEKyoKeZiaJkyXyY/qI/L2eyma6ANpn5l9knHBk161LX2wFF2bfEYxyJWoaQyZTL6ytAAAAro88wPiQKJLwnoixbDZAUL974YEiOftUw87EKt1Slvvdq3D/SBKKSqWPoam2HeVFs63Bc9AmSLRrOohbVjsdzvn4gEDeVvQdxljTdp3iFKasOeCGhENoNK+2JQ6DYzfCcy2KsbvpG62GM3FlSh4JuK46SgWvA8zLEPQcQC00I8dQHyc3K6kD7S0cPpBN28LYgUKRWFlOGlwqgH1uY5oXxcu1k4uEI0K9WUrBuumJFehUSugV6YiSQy7zE5g+Y2Jd9QorCjmXYH1JQas6jbhV/eLkRckziWpkV2voR8cBi5c2VqCW4/IygCS+dh/wBIXBz2zn2JgCgKdYq7+SUfIVhy8DmILIuBYLmn0wvZLEtjadDjV8HTc2NHElhTZnJQfeNOx9JWTH0/U4cP1l638/uWW19PzK4B/e0yJ+/xFR2nzDmYUEojtt4B9XEupQmhiYYii6H3lqYUcnEp1liZrErdylC+ItagtuydbZoTGSWpUadZdn0uPmEZ7N/3MSsE/LxcJK6i2jkvxMRUUcJD3KrHHmXzOc1WX8FwNhk96gs0ctG6fF8Ea7SRoCLSbxIYHTN2gwNmGF92CIZ2cE/QSs5UqpzpjcI9xgjX2QCbEWgyC64E5qKALPtI8j3n1IyqhElwI6t96hmSjVRzbo+sxFqvIKLs14hAaoCxpp4hlYfQlrGybNwawqpjzMJxtmNrNmC9Sys8pVzLZabpI2ERQ7g3tz1ZA0L4QtWqxrE44eGo6Bn0JhzY9Jfe88EGZAesQn3QmbWA3XbvLADbjFELVSLCglvzKCDW4wA72iRa1h6glUcu8xwrISwLduJThzAEaEazcRtACW8H0hEhCwWyykOfuQSYgcAh3XOdS3Z5ZdHrTAWqRh/CXn8v3DYtSF16TGjd0whVXsv4IIEFphwdYQhdUSzlulqQO8viHAAWJTcrePp+oGsPw/iZtynz+Ydn1/cQtUv2xGQNfhKdQCy8ONe2JpIT2PjiWI3jh4hHJrZb/JkAtWzvEqK7IdPpEaAfeOQWY7UTO1LV5OPxN+b+4UPrUPI0IYhWcj6GJYgtFFLHVaMwg4BF7Y0Zxl+hBvtrC2frEFAob0cG4t2SfMpz5lARUDxbG9+JmtuqZp9Y9hkEtC6grzLNKTFH3+YA5gGGGxvWdRdtDnmVHcZLTmMtBl401R10zNmobfUTbEqMWaMgAL8MWoRFeK4jdZ8+DLjdS4BZWvoiRe/X1hW2CEIrkauGUGc5o4lgrF8dSxaV6ziCmGDOUP3gC3e9RXbu36wtLbUMTEpzjc2l9XUVwg81FUBV6IXNtBuoPcb4iS0XHcpIPdYC1azdsECBfZjSkL3QTUDz3ElrVzMC7teuIBCEGDRTBcFUA0wz9yUWWMIgFutCC9QrEA52e1yzZ8YJ/g0zNvKVv/JgqYpy/CWjv++Zfh8/uCg1PZX4jhHLR8NUOYja6pZ5sNbWlTibOTLa8MW3uM8hXTQxfO9kAaqvg/EBHT8fqC8hy2xVdLCDt9fkirkeXpj6VKVz2DdekM2W7U0cTXXZD9Mr8CDZGwJZZITfniFQicPtG2Vl/O5lSg5Faj2QLZE0ZUm5DCgfwh6L3CtMNnzEsaSjXpE0Ua5jpTW9riAq3RV9o15CE74RbvdddxorR3bj7Swcl8ZYhgLAxUAjK8MusyKGzJniEl5pxnEVBFLs0MxotAyRNnMXAJZBmjcrasAGMNnaWZ2MVqx5BZC6YYcZgAhixJSFt2VcMNphQ4lWLwq8ZibdqzUWpo1qKhXvkgQtgeYttXxv6QFtFXjBBJdjzWIN4dN8TkAjxUuyj4gFFFhohQpK+01BexCaKa0sFyJ4YqbhzdwCrVQYWX0qXGKC0cwNNDmC1AIKtNsLO9OKgmtLiZqlUgAXF4lJ7du8L9KxF+yiyyVd3Fr6/di/g4gNlk585lRNWpKy4PELHVe36nq+v7jkYfP7mG9fB+ImGSkHHpiHi/hKqrF7CjD0ngIOw3WL0PtFfeKsUWs3WNjk7JYW5FmMw2t4Vo+H5+I+n4RXl4X/AHp7QJlW9niXFuZTUHiLndFY55IyWNsKx8QBtrHqTWmF1fMSgXQ68ECc16LdAwcZFkZpGRzok77/ALmAwtsrZ79twVdYy0W+PSmWYyV8sfqK5hqqqpcxAXzCxmbCqZUNQ2sra1BGQQ/cEhELbNwTB8j/AGYLyVRXcLVU6cSwNoGfeGxlLEAukKV3hlrfCadOoEpqlD+odxwUBa/pzLzDSgW+PrKBy7jZZTLUQgUkRs8QFlrad7giK6dEVgpfHUr3Pi5jVPPMFGgHknCGbpjYgjqB2UQ8RtQSrcQKPHpAbsFQvWF9EabYVc0BLJEBbXqYA0HvEchP2ipgHuRwTZz4mBjLzjcMomXbBYK3GudnUSsFQmYY56lPuuRWDD81cCGJwZfWFajj90EazQrtqFUjgw449YQ260GtYuGWnx+oCXh+H8RUTL8v5l7/ANfuIYUX2mFzopr9vmYMGsFetff5ToLOMev6+YALt/vwQgMvX/f53EZt6/7D5nh9frctFVLyFA5qEXrbyX4/u49ewNcHn2mcVOK6hwatBzEqC7Lc1Ktj2fMzFiWJ2gDbR2jJxxKE/wBohLJRdbINdC3W4sJlKrKYOufeZTFJo+P9iLcHYxAAzVNqAfeCgsByPMqJlhW3uGmFyY9rF6RrCgc2G47QU4pggN6EAxeZuhVj59uJbQ7qA4l0jVSnG5wa6Hvj4m+7BUQ+76149YgBeslcS6AKUxFVKHdXB7qTLhAquvXGACWrjW0gM04VKokau3v/AKgfGP8A4KI/Gwhlm230Yt+R+YFYx6P5jSx0Vp/MxB9J/M08Xh/MDEt+fzL285/OYku7ymg+B/Musv8AP5i9Udev5ixVZ1n8wBu/5/ME38l/mL8Ps/mF1ZfD+Ytu3Irgbpuv1APTtlIUOxzHkOv3QidAE6Wx+xMXL5ePWDYtt9Dbm4Auj6Tlh8fqAlY+n6jUVQ2tyuq9Le3PPw/Ey80uPRf2oFXDS68a/Pwg6UePpUDW11r6V9vlMtuthKMGnxcKOK0wKc99feVqI9v97+8FIFqsX0ccRIAbrRqD8zZy6lKWCe0cHABzuBCmN3KXKXxdkcvglZmiYNEKSAIrbggqJQDkX7tdwRKShNVtzpwRBJwNu6f1LgUeEJzNgy6CgGi4ButyoiCyC7pHcooL8oKzAbxk/MQEERdbuCCanAG/vFBaAVbXmI0W08bJm1Ea0ajS6QvHGWXGVFDF87gSBimNAYrv/sBwBweCYE59pdQQuMs0o/2XLlxZc4mP/GXiXmM4ly8y4ev/AJcuXLZctgsXMtqZxsKLdfDqJGuCZ56+v0j90fdlgz3FWxfd4eYSDtcX5eZZe/r+5o3X0iopl0AtiqHTWQa7/wAPmBSnIGfP8L5lJYjpfm5pVui9+N/l+Jl6F+lw4Bos8dfc+JwhVe+2/iGAFQOBcfTEvkE9f3x7TFizb4dcPWNtqAbtVUT1W8UA+kqCzV5eIx0BVv0muEKmnzMMCiKi1F4lS5L2QtGaA09IChJADQZyfEt912GG1fDGoLI2Vv8AEBm2LjGueWWD2C04guQqmWmMA4fWBaOCo7F6faAMqOnP0gyar1PSpXPItDMrLblFDcZyFDdF+0YstoePiOoq2evSACLV1y4ZRXa8d7z4+IyRWVs1+IixUO+47OAc7YFISvAly/8Ay5cLqDBly5eJdxwmkuWygRW11cMH2o8Ie+kahgr0Rqt43QWsyuh7rMKxoX2QTI91v/4ljv6yAA1WlOJeHWFaL5e3tAZAi5Va8zH+22ELg7oTi0ar0QAubOjPaWlVa9X+4FA9uWv5TAVvNuXv/oi+dmQ+33koMFhryf8AA+Y0FuQ35OftDWl9/wC/b5ys4ev+zW1hW3z/AD0hYqcla/qfiHUkybcV/nwjXcvj6/W49ayQa1niEi7gdXzmZSDUDde8QgMlVKPeFAb9dwjV0GQqa0AW7zcQaxUt53mLnHTCluQtkOvSNVG5dCMTY+AIuWQ1uI1pV37Q5mZFWCY1rIZOPWOtABZNQROlTkr0vMo2i7FaIBY0hmnWu4gKGlrVV6TIubz1KYMIg3zGrJ1DdOzkxqFYhfvwAge0LK2QXgEnDJhdldfvivXVk/eYygzu/wBh6Aukf7HgPW2JcOuZWLxcjX/idV5cBD0LDR9dnN9VmM++/if1P4jQfc/Uyfl/E/7L+I4mH1fxP+y/if8ARfxMY1j/ADiNrdi+nxFwtpzZ+Io/6/hKZbq7/CUuOnT8TnzH84l+FDiz8YBQUrOPwhYpIQM66IcuyMOUtydwdVLdWK1XVf5MRa0Zb4+bi4TX+kaADIcvo8QmKg4qvh4hkrQbXAfSUEqrWr8eNfUmII4Va6ZTcwIUX+34S2oSrutHPxkgUvIUN1wzilaXRtOPt8pSXNim0/girPUsptP4jktVCj/VACDXQI/1QJz0AKf7EV6ElinPmFCYMPDUPg6Q2PObgOERYKtigPELxIWUiIcZKqKt+2Zahp33ALbW6e5UObVsOKj3VSuGl4rqAM5s2Rgc6NLa1/kIhZUpFcJky56BwY5ykwTt093mtfNxoo0crAMLdZeILGXLSmiLxyVLRXgZV1MEOx44joABku7ZgBo11DGHOLCePSaXeY35IIWp9BNJWeCkuMeCD0YdUv1rcXv0Lne+SCIpdiuNii95KHFn1fvMVUP57lVYl3hD8xxAD0/JNN+jg+8ADVjtJZ1vGA9rmfC3F/km3Z5zfeLhVbe1/Nxzl85c33nnO6v+YnQON/zN6BuhB94t8FWr7zLdnu/MFWJ6riGgvnT6w3ht5jj+xc21d6zBa69L00SlwAYD0JQ2AmkAmim6lHVAEuj/AFdVA+Km4DjPrz9IKn+WzGaqLaILwdCcMGgGrz+D5liBLS/H2fMUAUeXevw/MRFmOj1f3hvgQaHdX93xBMMGWy/7P0mdVXLX918RzAaUKLD+r4jkTOVnRx/PMK3waz2/z6wvoRxn+dfDLagODOH9Z8RHfoR/nj2haedm0a1GNgUNPuYuCSMh2KJKa/ZIJJd5K1LzRtEf7qUAWemqjAOG5WDRqBoqSqhcWOtQfA1BU4HCAnsKHCk/MQhyP4OmLUFZWKl2kUHBE2zXO4FSjRXNKf5Lj9PtDKZ4Igi1i5YjTsIV+ZZhpWXuABWLId1K9eBYvwyslGiPnURXz4hQqmPSV3X6Sjx+kr0+kT1+kpjH6Q0cntKX+KB/4wSOWI3ccPw/ufwP3Nf8P3Bfo/c2/wAv3N/8v3Ffp/cF+n9y118P7l/p/uND39fuDp4dfuVvr/nMGR/D3jkibKtJXzB9+YoGFlNYl0lntxGqHYpxuUUoqgBSjF+KlgNWoeWphb/bZQ4mG/mmC3Cim7VhrmCopKMPBCMAhwbBK+4eVHg7jOJYcjRUcZJ9mVaUGtGbg93ZxLpXT2jAUitXmOgC1hdTRY+W4g1ExaN5v6wzcDFz0wsGoHi7ZgbArmDpNFo0MoUtcJX1JUKVUtr+xGcRuznEcer/AJLUsObgahV5uDQsDAs/DmJiaR4xf+QFMFarbcI1WoPENbYmLYjtNs83/sN9q0jYuo56iMreMkAKKlIgkFRk75hSpKcldfPpMJVXE8heGnT5gHROgR+YLrx6/cELezX7luvFr9y/6v3FF/Y/ctf+HXvLXj4f3EP+f7n9T9xp+P8Acuv+P7n9D9y7n2ZWOfhA2+yEjxhr+SGPR5/U/t+kbZ82/wBR+h7/AFKRv6v6mx9X9TL+X9SwcFpmncsfKI5tZY9F4W72wZlti85ZSbBbpAuA4VeTUtQCts1Tiz3+8UHaw82or0x9ZYc4+qVtn1Yj3W3CtyooR4LTjCJ6Y+ZQCmjCwuF2XFD1B3csvMspQ7b1KQVsxGISNe0Te3lniD0YKtV0suCqjjuX2NjxKZFVdTNy0BKKs31vMBgDQBaePTe4BECsDNWa9JtiyKO7iYsFFNu4SEwLgQsL1w9wrYNalROe3mEaVZzDBpd0VmWMk0m4IoBLyS7YtfIku7QHy1/sfTlRfrDBLN7EfMarLTC3L2Vp1Wz9QaWAXEBnxXLuYCnnkYKVqy4SNZNu8ptT0HTXxEOEx6YmlaIxBSUND07hqsc1K9Kmdfy+IPg11v8AUA/Pv9Sq9eN/qIcnfv8AUwvo7/UtP9v1P+1+p/0v1B/u/Uvr636i0/2/U/k/qH/R+pXWjz+p3+p+o1r+/pK7+xHqfSZPxJXL6SV/xIm3r0QnXqqMsrQlE+MQLLK+M/XFdxv0AjNcRyC8Gt+8o0kurNReHKKNN2ekPSy80cU/4QJYtzPeSPMuAwv+kyGL7epRdAL8rKIGm1mCCjbvcDIQIpSLoXzDKvPMWxWfSOBQV0Z957awlzgXqLXCgVSyyZL5uAqAAokbZQk6vEct9nEQXvQWsikmlhVX7kdswobbvuCuXl6RKtbSUjxBVCq4qIsrfBceQcpqK5aF+YaMF5l3kP3lRMWJvAlTrshXpIx6wQ92z7wQNSsbajvOgdkCIHNnjL+YD9S9lMLKbChjFsVSoOwpqy4ZjS+6MHlWN1WoVqoHp9alCg38y2IZyAcpD4lcArLqV/BP4VA6rftAAQ+kvEc7BOPUYbkEi6oLDWJWSVv5ldv0/MTt+n5gLX0PzEfsPzKP3n5gMH8PeNDgoKFY4psn/D/GZeGgQ34K6lIr6j8yjr5PzK6fJj409Yx3B4LVxba9VLJ2oDwxUyL/AC9p/wBftNhvS/ebRPnDQ2BlyJsaItyrhR5T6Uytyipoy44lSERU85IMAHmuZVJeP3iZk8UTIhSKCasDKr4hAkO1aD0i16FvQvxCAFcXkodQ00JS4X1ln0jVsPeI3uVkcRLcoVw3GAIj941LAG8xIpLWqdRyJWA2x3MzhKCgPXpFfUByX4GVfAwOjqWG4IFo1KqYzG1XamA5ZbmctQIrrmcFGWAVSW8TAiry8Sv14fxMfUNesU0KBfUxC0GH3gETItKhMmi4IUsMBlvbqEii0esRkaoNFYJeQLBfcQL4DqzyjBDZ0tVV8Qoq/rqJN68tTYf9gG6H+3EfL1qV5K4+0QDkFqvEa5nd5Z1I1K7tu/MDFw/1QEaqGOEx5kPf4wPf4wvL5X4ln7X4lOP6ekYAe8bT7Ia5ilqxlDDQyj8R+JT9B+JTt9PxHsdbPxHDfLEZXQo7oxT65mHv+Yvh76fSGtfGETBM0xSXChLUGCu5ReAtkZYtj2bl7FQDptd+uJUd0eDNJ9IEowf6kXGXUJEsb/X+RNFY+AlU5MfQL+IaI4m4BrFZiZULyd/zC1TKL2+u4RjqPylPLFeLQ9MGZmAArGzm8QfAjZdDtZRmsDOB5l/lxWVfFFcRVZSGB3FDhZu8zMonjoU84xLlLZwbLrPGpQcIpTpuKxDhumHy+G1FYiZPJMpmYBcJpFoRZl3LvWvrEmxW5gyNcUQo2tVtqXJLD2l30cZcFankH4gTEDdoxGBs8rAZgqaYBAKhq+8amArQblIWJbSADiCVnZENO7fZisq1rqtSroHxudL15gqs49f8mFPH0ikLHsxFhp4YEdFmhnUetkzcfeGsoOBvN3s7gKgQ0yo78wCRUOyVr2OJyfYmaj6M38n9zP7f9h9tr9y9zQNHZXcOD5UUUVxtls/7Ap/D6yqex/Ljb+H3gt0AtxBC7xHt7Zt62o29TxDsy57x1Brm85U1FlLd1bCYC1LzxL1vubIXtN1aZML4AoXf+wIATUodmOPMu8pcveP3LeY9BWElsqgcnGHUdWqWIa/cRnV4N194KrvMyCwMZltg5iwJUcdRDYAseVXEe8QFxvxmJspMHVdvb5hgjdtLpkeALV4mPNflJgGstrZv+5lMbmIfMyKBciVnoq+4eZOhiVx3snpGLCt0pGh00yoN23x5hk5Cz5lP3xEGhxBsCLfmIq2447lutboDUFgcBylt1iLi14l9ZY2BEzxDq3mg+Ze4qq+ef8lwsA5D4mN8Jkg02+amhAVWXmE4QKr9GFGgM92XWoLRZjjibBv61EqV9LudufG5UrV37w+I6b69JwQRebwmwGEsP0i5tudsU/lfiWK/h8Shfl/lRTjw/wAqDT3/AOVB/jfaWP8Ab6Tt5/5U/wAf8qXf+X0h/V+Itze/6l/B6/qV/wCcTELzRiGUAKpi/wCIzLXqx1AKXtVkGm3K3mPu/MKgi83eoisK3FG2FJN0oPVmGpVmMvEDFurulblkQQVl3Qj/AHpNwHTXL+I9hcopGqT6zElavksAM+sawDlLMKv+9Y4kvFDPzZq32IIBtwtbVXdu8/SCssQVXffxKwxhugONPXH9ctxMERKeTO5ki2n+FwCt4soeLhoIcsjbwHH/ACWDLNAt1+dyqs6grHAf7HELlKWBXEXYJWYSYWscne49b/pKl0RuA5G/zEjgxYLplkYGFl6AWl4+kQBF4XR9oKoCBWOPWZUbdRbLJSuPMsCKogDZLwFbxANN+moHVHZdjcr46pi7f+QvBXczeKvFXKAo5uKWY05bElwIrDmvMo5ClBDWgsdw5Mqm0VEA19mNRBLAcGjZv4h5ccQRov8A2aLMedQsf9wSlHr/AGZnW8/2YemmYWtBbB9Uq+XX2fMy/g/MFx72PzAGvlPzK8v1N/ME/Oa+Z/0f3Kv/AKfuV+4/mBv9VlPXywV4+cHFPzTeT05coi4tZuyeJRhVIFesN7C1rPUClFjcIGrscZx+IWSuprjH4lWF4uyiUOwws8upSyxRneMwxtifWOtODR4gWBAl1zdezL90ljgWZ/yUawk3HgMFqRgMcRTbpBx9dRzOUNd03s59owaqGnhisGBL+/ir/IO1thu0cXq6xuLm0Cmbvmvb7StArOBTrJ9MfebwpKQqvTqXBdk0Abl+vAWHVjd8zGkz/ShgesEuXWBHOzB8wFQCgAleI0MBQ3qDry1sWya8QACVWPLogIhFswh1F5mCto9ypKpzRl4fMxqt55x8RJYBgKveKkNYi3QFwt+kG0y3jz4mcBQU53EoUM5iPI6JZrFM29R2crUXG2D01FLhuZ6I29qa3NSAdsKmxY2NTLSS1ijeLli+gc154goCqYquI0CKXzM0oKuGAbG9npMITG0HNkC01x3UHGvidKPbcMZK+f8AJbAcdX/kp5ul9oBdZv4gihSx2+Pd6gbohBovG5RqZL3okfcpCuS0AZI8AqUA7xGDg8UJ9Ima48wa69bIWa97IcQ+SJH2uIbPPqVNDvVfuBp3KMCcAqebhCY87Iodpdo8a+Jd1efWA29ECvnjga/MICd9ZhiF5Qf5zKwYUWqxzAFBh8QooQtUZftC2JQmFXivBmO1yLlrgEOFiZO18NxS0sQMHFc65vmAMLhcQuRt5jamNUuvU5x1+YYs4SON2ecdyjU4WaV7cXcqcWQFvvjzeH/YoXltlkwPzFKl8YYvR4ICxFAKBwvUpjdvemt+tYzCWLtvBisL6db5jdtbF3jZjiXYbOoBel3CSpBblOr/ANlMsTTEHokZSBQg3mobjcPwD4hvXshK8oLjrxLiarNCYtHCNQAXLfdXBuC1nW2UKRR598ShjHDMcOXZWpuW1krUcXn1PhlmjgjaHmoTbJutJnr3lFvoImCBbTmYBD2NwlJraloROI5dV0N3XmX80U00S2aLDbW5cNrMh6RqFobW+I2QATA1bycxa9O7iDSl45gyenNErJT/AJMzp8Dc4YLv3iA140WeIcrg+YsRavnLacqD1/XEVKq9fWYO/wBQIQlAFr1KidnZ6PPn4hElFJzhK6w2/wB8xjCCxH+JrnXX9qGnf/OJkv8At7RaV4v5UX+z+kJjYAOvL4lDtmSctbhelOhoN/O4HSjV8REAVdFXGYzQMl18bmIi2uFutwCerr2mJ63iCXQsy8C4EtmG795alIvL8xCQJedcwgspyDn8RY4TgWnGfWDtLASpM3XGI+nYzpdGLxu45ixZFjBpVjF13zPiVQBsZ6TxmWDVFCIcl+313M3ywNuCvQ9YA9mGoZvJnkPMPZZdrDdXr07gil7IIFHPt9Y130Ug5qDd4iqhJW6b4lhYs26W+YtVFSxPlr89SobQgAuN1+IVCZabwVxFjXBiMcbIBigBWG2zr9QZrqQ8MZ1mUcLTY2jlpSUcZR9INEM8KHJtGEAF25ZQqshrOoW6thxKGkyL8QmSCZcWNzKqes+7EQd2XTX2hQAzFw+Kmn3V2FDDl1RJG0E+lQDGKSyEMEc5qpz0pqiGl2hvFfqlqzisBuKxTqxDSDOwTYBxAo0tzjzFGNmWIOmiC1vHpDIFVjg/MIN2a9Zar36y4GMecEPyvAVt/U+yPbalk8ntcsN8/wBuFcLT9pYNt794nJqAyzIY1IyHo/MCqs/aUcUemYEWmTWBy9akgEOQ5Emh8Ju+n3jsL1CKAkGEm2JFrx3TDV9biigPDBOZWBQuxs8RCqXVdrALoZtrEbZc946ixRz/AMlKp2jOhrdT5ihQyw0VnMJRoKOpTACm+5Z1ea1jUtu4rJVjN3DVASGi7OB/tRSaAjeAjACqxbtrh45eOYUpi9dGJVOdNY454SrHDsq6+663BCVY9GqEcCPJ4vMykUYBBBAXd3nwdywbQysx08/MZtxI1luvYRFOSB29njFHEokTC2MxQIozmfz+qU2GWC9smZZm2hSK56vg3Lw0BZWk6xtnWLTclxoPPEW1alAoKXg4/MrCCl+DoP8AZaIiqBR8fWM9RRm8JDJm4zaL4+JgXJ5s8w1e2EZmgYM08y2UVYb4QNXBJeXF+0FEIuEAAbC114iDKfGjPcvfC1RrDn2+sd0tMeI1WRSNJ02tPmKfUL5wV/kC9XhpgLSiywaqYiqYfLBaQ1h6xanbQDpllELqq3uUlW2Vi6gwVeuMS7Az6RYgCw5PueeIGHCWHnwu3tl3m3P8QfWyWALa17QK7Ko/sEP1mK/xPH3gWO/rOz/YLbeOipijANbMw8BeW8ZwnmWOfXVR6ylq/wBI+gpbkjWfBG14u51ZCRch4cDM4dqv/uDmzbaThm3t6Tp7eIeLdt+0wFSZeepwe2n0i68vEA+ovWBRmgLl9YIlDSZiqhV7MIsAPWmokWOwBVX87m8glFgDj2z6xAtoa/m3n8RfzQAFu1VZvV65lqSirKZYt6GoDFeaC/BDRbUFrOy0ttmYx0UL7MYuVdKoNszCJT7ZlgTBWjkxXnEuOhVaA5v6zBsSkuWN5PMe1RoSl93EN0gED0GJdNacrVfHX4l7S5dw7iYBz1+KjsIOKhcIYgvO2G/9lLLpAtVnHi5XAFHNV1cDKALtFwqGhs9YAy3qDzH6oAqiqPeDuG7WrqXlHS6F3Eg0eTjyTIhY2FK/n6RlaDJOMNMuiR8iW584fpCMFlTV16espKocrqzF1LmxKeAb3fHp6QYVGD7St2XKOILAvXLADNFM3qIDYFlFVZxDkCKYsYpKwUcQoPUXPMHEnGj46P8AYWcdcEArIMZrNxubqucytoShr/Ay8QYxQoGDj+Mz3f24IVv+1OTN796idEx6HK+ImHS8+HgjSHk5bl0MY80E2fjMC1xb5xMWxoAyvQcy+Jdkr5e/shhTK5FtXzOaxjErjHUMAmDPYjAhZ3P0iHMEG6YNfMoVzGnP4nA2bXHX0lcreW8RpbtvMX7bafSG8aerHUwz7bx1MheW8wnZCDevWOrFUMFZzAGWVW8DMfIegZiVG6Jf1mvKoSrZWP8AYzBQEWbzfrqICsFAR/XKaxyuQOfDWoKQMwTfN1xBghZTqK1rUNjLSlrv7PtKbBrVVcV/sZb80MnbdfH0jnyVvSqlM0Vd3xp8y5nhGxos+0QBdCZLmDMkNASlMFQuNGOqmKNsQrPtBUmVVKW2UXLBETcFZ5YiWIptl835hUNSGBTWoLXEFx0LqOvQW8H5QsMs1Obcf7KKW5URTzFuBrd9RABVBnKDnrMRCa82g4PmtRuHLF4w+vH3gKCXPIaA9JWKaxApW1t10wz9P1YfxFeKVhYF1cqResFPX4htF0UEc7ZRBlYW9+sBBd7JNP4mMCaLya9Gj34lNittoN3dXl83D3C1LXt3EVDRYzzIGatzIev/ACBdUrHMTt16QHmNTk68O/hHiMIB+ATjm7/5LcZdf9j6tf5CJdlgeTElDeVMv+4mVb/EOK64JnBqAh7+0e5XyWEwFK0PuHtggCjc89ZlfiXMGa8zFIljhO4DCcHiMjjWYyXcsy04590uvsy8xXrvpgZpW3jqdvvZ6lzmdHtK9dtQVjoh1Vv6jWmiyO+ZeytgdIKWEyLVm/tNpUN45K6pdjizWaixOWSzPTvLKj3WPhIKtqLpSm09zxMTAhv/ADj0jCdMBLwPS6zqMKArar8/x1G86ApQJ8feAwgUsCsY73xBLYpyACh8LZfZGy3IAzeKCspGXol4SUBYOQ4xM0xsVbzXpF195Cq89QGKmQznum6jQDjOSo3OK56uniUSXImOy8soTJzHWgCJweLjv7bdNj6RqOyYblLXYLbxCGmG2Vc/EARGO4tEJtXFZ4jrRebSvF+32lLDYUXwXOOKlBFDTmn859yWWZS6iPtAqBotX6P9j0tG7ddzITTkZ1uviIHrlb6+IoOBYjChIEQUsdMG6IarOCXBVi7FVTIKNYtyGIcOh9yCzOS4Pt5hM31xDXTit+/js8xCpikFA4DghZ3/AG4vrW/aK+b/ANgIkO3QmIBdquV2zKNfbEKVMfeVVf7iZs78QQtKytL8vRLlhlDivXTy5hkgGAIFuiduK3OPpF5qccSuMdTY4KeJpTGvzDZNBN5P+xGENtoWL1vvHUVac9l9TbL0H0h3xv46g5d9l9S7Q173MpUAoo7cRgwp8+OZgzF1VlxnUv5gAFN+ImIJEemDcOm6gD6WyzCljwdpfhnBYWB6Z1DE2auNcsY7QT4ZmJNmKO2BFA2qH06h9g1BcW6+IVmylpDNRe8DaVc1zLNkzkDD9M/abUxNU7u5eUUE3XwZwRbZ5AbtX4uC0EuxFBujZLameNrKPQ2Vtih3LHWzQxRAAvPIHf6gwABTn5iXGMqoPaHre8zcANOCvSYioi0Vrj4lmvWS6DzM1CrgM4cccV6zKZwFzYVSqekJoihADj9R3WFLVveH6wXJYUSlMt71iZ7IN35DC6iklcl2fSOpLMur/n0nKLAlaMSiqhhjmDbsJyS8Y/2HfHSlIgK2iLq64hYKN5DFeka9XyrLz2iW4O22IQA9gr26++OXr2/Y6JXOe/aN1zf+zB3WvaPgVltx6dtcREZunnyvcasPPGfrFD18uYIrv1CViitesGaROBaB29H3hKI9oVT9uhDGgCeKOovNeY9UTmsT2xuV4JfjxP8AvtFuyzSSgqqxlYhYYXr8R43289R/U0+k1L7mJZPX2X1Onvp9JRu16HMPUDp31Mj3DNxDJAQULzvUXRbu934mCN2K/cFimtptzr0jMUh231ivtGvUUfJZ/hGXggtqLPVr3phi4gawub9zuY9DpqVcXzxxiWQEsr8HEzg21Jqbz/2JKAKrZtFN4hmlam7xo+niBsCQaVttv41BK+Xlt0W5swwFLCkFF0F353nc2eBtA1SncwiPIL5l5ZqAQNkqFtwh9FV44hoMgUoWF5ruNQo1nbEpy4VKKgJwPDMTRW1msEKrWihSq3FGVlUbU9bjA3FXh5h3NBleDZ9YW4AvqsXGOhEZpr7Yh5ioFkA5vq1OepZkaV6Xf5lqelWzS9f7MtcAFVdXBTAsYHkv9RICoUWblbzvCDYyxhzM6c7vqHZiIC1Z4iEdpsONpCN5oC2WniwJbVoca39jw5idk9uh+gRKi6+MSLUxVl0r4lWv5Uf5G2ZVvvsPP2nH+X8ZlIOL+sTJd1ftK6+DMojZT5YCCGcwPPnojELZfIfxjiBnRUDmiVgKL1H0O48FEq6x4ntNs50f+cYl36TM5Oj7kw7PouOw8AVGtLMeU3r7T6Q4vW+/aCbsIheq/Mrjr0QUcS1goLD3saSub3/NTYIc3k7F6MrIa8pdJ9mKOwvXJkFH0YjDxRavBpxcpVHsNw1Hj3Fi6fNX5+sTkTVwAnyNemZTwyxZw4weYcVKvRtewf7NP/sxz0283cSHFCXoLXHt59YxSEA3R/cRDOwC20axnuHrdQBd9Ff5C3AqVmr3X9xCRrVuG6+YIoo0/KPTFHxAaxURmmaQq2FuKMV10CDf9iVIPQjtT7woGyqqINVhpMA2YOQ7iC01WBjUsbEGrEc36XDDsFXBvLZqtytZspRgrq9cNeZQZVCCG8SisjJcekVoLSz23NVVUYi1Dbko1czoQhvay89TWfAPcelxr0gOSgEKBnDn+IqWXDYpilo4pxzRB9h2tf3EVp7yS/pE3BS5NrL64/2Wqz0px3gdxC4S2grRr0gGY9AKAnP7uAtYz4xDYNXfvDC873KqbjbT12+yG3GqW6fqQ5aJzonsSuMdRPB3Heidanmp4x1HOaJXpOeJ7TDHMLF2A5i1CwX3cz1NaYZWr+4ekSYjvp9JUWrAnRS/tKdR4SzXyokbOltrErLZFLS6alwqqNUqnS9S6plLBex+kwqt8E7CoEwlBYdjZtwDZfk16srrYwsD/d7hXq4KDpe2B/RDb6A34jisDdixqj4ihoeC2l0fHvBrhtYrnS+n3hPrBCmr05YozHYsUEaFjd/dKVxEZ+6eOPMwtq9CtUMACuqMaaL0d3MNQC0vDm5qUAxuTUMCFgXF98eIAEnYPu7imepuv+YfGkC3qo1IXU3i1Qd5g28rv8ZjDVFKqIRsP+THHeblZBR9WOLjviGiws5GuVSy/ojgL453r1qPwUXA4BTHNX/yFW3Ru1v9xgFM28/2/aVs8K51xuYQVxe477H6l2f7KKClwNOEI0wvoPg+nzHpjZLGeLzXEphTwJna1L1Y5WVlq8sxiIA9wF5OSveXnA1ofA1W7/siik2ePF8QoFR3N1tuNIQTtFvERbOeiBml+t/SGAH20Q2eLSmf+M8RhoHAHB0efM2uCHGCVjjqCf7Kzx1L3qa6mJ7E+Op5x3L/AB/4b4h9Zg/WGntIRe0sFO+IgyW20/5FjTbx1GqqzG5fMKHG+LPcchRTh7iBYdTAfwYkJRumIchsLidKwqDjXzUsdrptVrN5tX6RqR0HSguq9oZDozuEpq2D0VLKtwS6xX2IQnIIYcG3WuKjtp7QdD0NuOWKn8xhLSD1sZrnTb7REAtw12lS+HcwyANE03lxnEcRtrYbqnq3/IXMlUxw/mInQ4qpnVNvdOKb9pma6tmJjMUUOwLq6zfEo6y7qsylxTOb+UalR0gKwHwjX2hRLE6F1CKAlhyltMMMlXbATkUj4lUr/wAzwQrsMtwLwygOXb9ffzHkAVDemhr0TqG5AbWgWdKwCUZBfHEUoFGUJsWXDOtxDhdl+YykoDTOcyuowmV8YrGourb1lQrDeF2cMrxPR6AcHHWIolZYva3tCxDCVBjZb1iuo6r7LWsuqOevmA0NxrtoyevMyBG7MDZ+V95uAOHC9cwxW3qyzfAXfj3laLZAp+Hy5jfcc2YA4HBEp4nnGZxfvDrHUNXjueMdTtx3Nc/+XLiqcH/l/mf8l5ucwY7EzMQKlkD5dy/avU6lLaDLWOYjYpq+riYILbAa4uLIumh4igJDpMwDBYYKrQ3v2jm5HqzKDjuKDWWxz1uNhmK1rNF7x/XCEKKXYIZtnku4ghrZxzGxsBsSpWMZupA0FRFag10l6hxl8hKt8S831QBO0OYWBe0gKbx5eJxenKoCmH2lKrEFwtc8e8KoDgCDymJjAgDlb73NAkBFdZfvUQl1oMqevNzGU3hshryRlaLdVHLDd2E5wcShxTeW9ssAF2ZmCiJ0yxWsl81bg+v3iUrfPywa9NF7e79/aMqckHj+MoM2qYymZR/bTAwbJd+1PcScFbG2zbv1x7ErR0Ea5yfYJm5LPgmowcUspIjV7r8SgPluW6GItBGH2vJtZSURWdaUVsXyM0rC7LzW+mIqwoXAAeIC69sQDb4r4mYwRY7FG8Jj/twBTGHTV8/3UGqw0TTvjliyiwESgmMesKgtgXOW1RvkBb4RHcFq/wAnR8y3d97Y56nvn8zxL/M8X4l4v3ni/E5v3nvL5Z7xl4/8vmXPNx/UWvvB8ylwDCQxZWC4q/8Ak4QQMXr+JfelDub5678QodNiux+f9h4oHeB+4jhQWhvVauhi38xk4+Ht9+phE0RAsa1w84jWQ0gSkBtLdD38zOfXqp2FmHV+8ERSE4u3p8yiMWlYC663zDm2Wi0e6tN+JVuwAB5e7XEu3sXRBTTrO/7Uy95CCtlL+3hhoIp2neP7VyqhLAD5uq8yopEl5bVz/VDDEheRlxjJl1AKSWCsfGg8eZdro2LB8665IVICq4axLvYYillRSADycjhezP3lzYbEXkLlXZGF3b17RcaDyY3CbuxZM6HZkIMARTVj2jpTPIzcIKN5pGXy5AYox+ICYKKs45i1YSgHWFHPiWKkYrza68zFIFJKvf2fpKHC6p6V/wBgWBKcD1GlOq0OEHCaHL66g2gOW2DFCo/G1i+fMsjSCILeTt/rgqi5AjZpFrz7+IGsDZ1hbBVZYWbb2J/MBlwAC53TrxE8vugFPrdRd7i2GcWQ0piKBSOftAPhSZWxPtMJiiufK9+GiGVFV2Mq7ZrmGjM98y65xMs+3+Tzz/sxq8f5Ob5/2LiW0zEXPn/y8Mv/AM1LqXc4g1MegY7S4soD1f8Ayc53t1gt645fSBekStEZu7H0iKXvb7qyezzuDN0JmuzFvCe1QkK3AoQax7p8xeoiXV6yiiOecY8yjs4C1Sb2x9fpBTYAqcM+PJaTEybBY3Xp6wD1dO3LjNay14jyratFHWMVgSMZhjRDeU8tH1mIhoBIgK9Kgl96iW0ojs/yOCx5aOtVbrBKAcYvKm6N/wCRRLRiaLWzWvrFkDcpGk9GSYw9C+nFC95fP+y9IzFI9x+8b9o5qafhhoP6tONYjxBUMp8RGgAsoOGT1lSEoEvKEOhpAwYlBWuhvt6hKjS6S4LSKGPPfmBGBcLx39LqUDQrAQf7cIvQ7zhmAvlRZolyPBdV233v5nRQFK0NDVPpBuwFg3T2787p7ldTmHVWfqHSBWoASXgD6SpYdV+SJQkvi37wMVRyHsMsEY6di4rr+5jBsCwguMZamClrlw6dwlpUmj6Zm37FWpH3iqwWAVr6/XrMu+K1Gi979ocawBBXeNvUeVmxwPXZ7+Ew1A45HObzAWLusNNH1jXVD3nP1jjAabXP+xrwbeX+Y3mIbM5+sBsp4Gs/MRGIvA8S67T12mF2t66Ep1f2szG6tt+gmoWu245lCHyi0YDd3mNqwC8ciX6fXabD7piNrLeooDme+E0HRbylcAYc7ZiEAHNveWJrcc4K5/DhE4gJ/wBZet52g5OGJUurd+vDrEBNRWwvyDT1ACQZu4avJuwTYmEf8zY2rNbBuoJlVqjod6V/kcBRHOmtImLd3KgrPQDAg6b89woQCL0zb9MJ8RXOY4lTWff/ACNB0hGjSHFckAx4XRQOy++vbzFCg1QGPit6i2V6egYF8JjHpCXwSyr0jrsl2CIVCFk+LPrGjmicBoETq8icSjQwgEUG6xfDpiBTVKLEGMZD3fiI1ngqp9x+8KKAUW1KTOPe5dUymLtam/rfiHt6oAg39GppEBIu/f17l1AGfl8+0QCqsiLo8cSkLbvOKni0XoaiESk2Lp6qWKiljSeGL2oHSaxuyWuA1sV941rCgt2jj5lZVYTYVKv4Ypkgrxtyf2I51crO63tY2Y8S1BFAjHZ+KXKA1dOj4lK2nu8RTpldrHiY7QN0Kqei+bqF4MZ08TXiWsn6uUlpnrhMbSxczmcAAFFInWoYOVWN+nB1AY4CuXzAgAcBX/IpgT0/SXVlX/eIIos/3qJbPn/Ey9/V+J81rb8QBah3b8S3HcGn2gkotbr8EzMbq/oi2/g+JaBTYfiiAKA6dn0jUAAjS6jfEqLQzV8krRMoWdKN1CrZhB3P0SKUScBCUXRl6xfFL2kWCuc1XzKQiGiGUXaPihyujeMJTCMWKfMsa/IyfaDNZ+v0RX+vENVvrmIDvVkLwF1dm/mc7YlG/mzk70iFhDSwvVp2s2Yjw6lrIExeo2GeLZjtVeJXJ4gsaM6p81HygKptZrxpEWwA4OzELCUqUr18NSrYmOX6+scImAFg68+sdVtKsLPneIAsDTKvf+QGsFKScxfB3Vha95nwoE5MB6WQbjpoGiUeJXLmOleTPHEMJg9B7udMCAS7XS7kl6y3bTfXiGmdk5BXS6i5DPZNaWNqsHb8wwkEU1VHGfSF2qmnLOITABQDgwMPgP1GKUFOy8m0V9e9RjrtXYvLvzi9xEgpX1LD5OZyT4iJ49pjXFmF+v0i+g28tMXz3LvlRYWMlV65qYboQtkb19ICECwbC3K/H3ls4lQZrGK+dRU0DLYPX64iKytUco/MYWULXRlH3JGgedZz/cRAg6uBKyNt/SMKN2qr0n1YGKWad1n6SyKoBdJZ+5VI8I78Py/SAxQLWOfb0iFRFGzXA3HLbmEcD+sg/tgxyJ35lJFm8M+b8wiAbtDN9CNUD20tz+IGk1KsnGvhIngqMHb/AAR7FbIMlHiFhd0rTyxg9K0uWGuymODVWgsqNwVbk48+P1Hqu4Mi1EjZRICmFL5+WHBqwqz9kaxPLHbj1igLYoTfhhNYrQYe8RBZipkbo7jI3Euh0kUh5Ut4eplCrDSTrQQHn29oiKZGS0v/AD1jpEC9CDm/eAic1dlD7d3AYgRaL29G/wBSyqxB68j+IlspY5H5l/y7U+glU4xqDDa6Sxl6tK8I7+8Z7lXV6PvMHxSsW94mYxs1VOeOYIGbNuk1KQFBofozN56yiAniUYrDJrMPQ01TCV6OyZeF0UG/+Y0FJXIZikWy9StWe25RHEGGeUSsFYTdJMiQg8ir3UHZBtA4qvrEbRvdJDXglai2jYvmLxRQ4f7EQxd7XumK2Xt/XK0EFMNXTUOrGuNWqyY1uLvdJVCt4ri4cRDWjQPTP05iCK9N7j+58QUSzJ8MfBo5Dto/3/JmOijBXsZh6C+Azg5ZmhaO8f8An1gQMaKV/feGIEsUovyG5U63QZV6cRZwoFTRjfBozxUABfM5/sSoVBm1pl4oreI7zriK49Bhv4Y7PIeR94CAgwId1p+sSUW291k/2W0rQNKaqDoIyTLfeIVxEKLKTw+8pNHcWWU6Tqo6ATlavFfiVgQN1m7v/JUwVfxtr0iggVtRRYV84+8CBYFRMIpr2hUW4tnnvxL3yGwThMVwBoOHfrKg72AnVBE4q2QBd831mPIhizI8lSoUjTxGftBIEOKSIGKEB3jD5zcoMLVJzHAvDR2/5KOoVKiDyJv9zDomlETPnf0imqHH037xjdlKC+x3nzELQqyoe7uU5VGRpcQ3bhPpML7nkHZ37RHR3Mz9fMswMMYL9IVcXAwS9QM0tuB0+YOuNeDEYyxuvAxowLsPL58pTmQ5Rp9CW5HZQ+u5dvVpDAiWfRHxMlVbap+k2huKN/qUXNlyzE9oGMQOa+eSIM3FK+P+y7Zvt/ef/9k=&quot;,&quot;width&quot;:&quot;612&quot;,&quot;height&quot;:&quot;408&quot;,&quot;x&quot;:0,&quot;y&quot;:0}" math="0" shadow="0">
      <root>
        <mxCell id="0" />
        <mxCell id="1" parent="0" />
        <mxCell id="cZjtTq5t_AkVCw1g6FHs-1" value="" style="rounded=0;whiteSpace=wrap;html=1;fillColor=#FF0000;strokeColor=#FF0000;strokeWidth=5;fillStyle=hatch;gradientColor=none;" vertex="1" parent="1">
          <mxGeometry x="230" y="30" width="240" height="140" as="geometry" />
        </mxCell>
        <mxCell id="cZjtTq5t_AkVCw1g6FHs-10" value="" style="rounded=0;whiteSpace=wrap;html=1;fillColor=#FF8000;strokeColor=#FF8000;strokeWidth=5;fillStyle=hatch;gradientColor=none;" vertex="1" parent="1">
          <mxGeometry x="130" y="150" width="50" height="230" as="geometry" />
        </mxCell>
        <mxCell id="cZjtTq5t_AkVCw1g6FHs-11" value="" style="rounded=0;whiteSpace=wrap;html=1;fillColor=#FF8000;strokeColor=#FF8000;strokeWidth=5;fillStyle=hatch;gradientColor=none;" vertex="1" parent="1">
          <mxGeometry x="180" y="150" width="50" height="30" as="geometry" />
        </mxCell>
        <mxCell id="cZjtTq5t_AkVCw1g6FHs-14" value="" style="rounded=0;whiteSpace=wrap;html=1;fillColor=#00CC00;strokeColor=#00CC00;strokeWidth=5;fillStyle=hatch;gradientColor=none;" vertex="1" parent="1">
          <mxGeometry x="180" y="350" width="30" height="30" as="geometry" />
        </mxCell>
      </root>
    </mxGraphModel>
  </diagram>
</mxfile>
